<?xml version="1.0" encoding="UTF-8" standalone="no"?>
<svg
   xmlns:dc="http://purl.org/dc/elements/1.1/"
   xmlns:cc="http://creativecommons.org/ns#"
   xmlns:rdf="http://www.w3.org/1999/02/22-rdf-syntax-ns#"
   xmlns:svg="http://www.w3.org/2000/svg"
   xmlns="http://www.w3.org/2000/svg"
   viewBox="0 0 43.693012 64.130798"
   height="64.130798"
   width="43.693012"
   xml:space="preserve"
   id="svg2"
   version="1.1"><metadata
     id="metadata8"><rdf:RDF><cc:Work
         rdf:about=""><dc:format>image/svg+xml</dc:format><dc:type
           rdf:resource="http://purl.org/dc/dcmitype/StillImage" /><dc:title></dc:title></cc:Work></rdf:RDF></metadata><defs
     id="defs6" /><g
     transform="matrix(1.3333333,0,0,-1.3333333,-26.075376,76.388398)"
     id="g10"><g
       transform="scale(0.1)"
       id="g12"><path
         id="path222"
         style="fill:#ffffff;fill-opacity:1;fill-rule:nonzero;stroke:none"
         d="m 338.492,100.516 c -106.551,57.711 -141.031,116.293 -141.031,238.765 0,0 0,213.41 0,222.688 0,9.277 1.852,9.277 11.133,9.277 h 300.625 c 9.277,0 11.133,0 11.133,-9.277 0,-9.278 0,-222.688 0,-222.688 0,-122.472 -34.493,-181.054 -141.036,-238.765 -6.191,-4.9496 -10.507,-6.1137 -20.41,-6.1137 -9.902,0 -14.218,1.1641 -20.414,6.1137" /><path
         id="path248"
         style="fill:#000000;fill-opacity:1;fill-rule:nonzero;stroke:none"
         d="m 358.359,249.352 c 5.196,0 9.082,0 11.856,0.296 2.793,0.301 7.226,0.301 4.726,4.825 1.954,1.507 1.856,1.507 5.899,1.507 6.66,0 69.687,-3.847 74.531,-3.847 4.824,0 6.621,0.305 6.621,4.222 0,3.918 0,12.368 -0.293,18.094 h 13.789 l 5.723,3.465 v 8.594 l -5.723,3.922 h -13.789 c 0,0 0.293,9.496 -0.156,14.922 l 13.945,0.152 5.723,3.465 v 8.594 l -5.723,3.921 h -13.789 c 0,0 0.137,9.344 -0.312,14.778 h 13.808 l 5.723,3.465 v 8.593 l -5.723,3.922 h -13.808 c 0,0 0.761,13.266 0.312,18.692 -0.449,5.429 -2.129,4.222 -11.172,4.222 0,0 -2.402,0.602 -5.41,1.809 -7.851,-6.031 -28.125,-4.695 -47.051,0.601 -15.078,4.219 -30.664,6.329 -39.394,-8.351 -8.75,14.68 -24.336,12.57 -39.414,8.351 -18.914,-5.296 -39.195,-6.632 -47.035,-0.601 -3.02,-1.207 -5.43,-1.809 -5.43,-1.809 -9.043,0 -10.703,1.207 -11.152,-4.222 -0.453,-5.426 0.297,-18.692 0.297,-18.692 h -13.797 l -5.801,-4.785 0.305,-6.777 5.496,-4.418 h 13.797 c -0.45,-5.434 -0.297,-14.778 -0.297,-14.778 H 241.84 l -5.711,-4.886 v -6.657 l 5.711,-4.437 13.949,-0.152 c -0.453,-5.426 -0.148,-14.922 -0.148,-14.922 H 241.84 l -5.711,-5.043 v -6.657 l 5.711,-4.281 h 13.801 c -0.305,-5.726 -0.305,-14.176 -0.305,-18.094 0,-3.917 1.809,-4.222 6.633,-4.222 4.824,0 66.336,5.129 73.269,5.129 4.227,0 4.563,-1.282 6.516,-2.789 -2.512,-4.524 1.937,-4.524 4.711,-4.825 2.793,-0.296 6.66,-0.296 11.894,-0.296" /><path
         id="path250"
         style="fill:none;stroke:#ffffff;stroke-width:1.23199999;stroke-linecap:round;stroke-linejoin:miter;stroke-miterlimit:4;stroke-dasharray:none;stroke-opacity:1"
         d="m 344.375,255.848 c -2.047,-3.875 1.621,-3.875 3.906,-4.133 2.285,-0.262 5.469,-0.262 9.766,-0.262 4.277,0 7.5,0 9.785,0.262 2.285,0.258 6.602,0.258 4.434,4.133" /><path
         id="path252"
         style="fill:#ffffff;fill-opacity:1;fill-rule:nonzero;stroke:none"
         d="m 367.031,262.328 c 3.477,9.043 19.278,8.199 36.465,4.277 17.188,-3.914 17.188,-4.519 49.141,-4.218 l 0.312,111.867 c 0,0 -0.312,0 -2.422,0.902 l -5.41,1.809 c -7.851,-6.031 -28.125,-4.695 -47.051,0.601 -15.078,4.219 -30.664,6.329 -39.394,-8.351 -8.75,14.68 -24.336,12.57 -39.414,8.351 -18.914,-5.296 -39.195,-6.632 -47.035,-0.601 l -5.43,-1.809 c -2.109,-0.902 -2.414,-0.902 -2.414,-0.902 l 0.305,-111.867 c 31.961,-0.301 31.961,0.304 49.148,4.218 17.184,3.922 31.656,4.161 35.133,-4.882 l 0.644,-1.586 c 3.731,3.707 12.461,3.402 16.836,0.492" /><path
         id="path254"
         style="fill:none;stroke:#000000;stroke-width:2;stroke-linecap:butt;stroke-linejoin:miter;stroke-miterlimit:4;stroke-dasharray:none;stroke-opacity:1"
         d="m 273.137,377.227 0.293,-108.504 c 31,-0.293 31,0.285 47.668,4.09 16.675,3.804 34.058,8.3 37.574,-0.473" /><path
         id="path256"
         style="fill:none;stroke:#000000;stroke-width:2;stroke-linecap:butt;stroke-linejoin:miter;stroke-miterlimit:4;stroke-dasharray:none;stroke-opacity:1"
         d="m 443.652,377.227 -0.273,-108.504 c -31.016,-0.293 -31.016,0.285 -47.676,4.09 -16.68,3.804 -34.062,8.3 -37.578,-0.473" /><path
         id="path258"
         style="fill:none;stroke:#000000;stroke-width:2;stroke-linecap:butt;stroke-linejoin:miter;stroke-miterlimit:4;stroke-dasharray:none;stroke-opacity:1"
         d="m 448.848,376.816 0.351,-111.664 c -32.265,-0.304 -31.894,0.059 -49.258,4.012 -17.343,3.961 -35.175,6.141 -38.691,-2.992" /><path
         id="path260"
         style="fill:none;stroke:#000000;stroke-width:2;stroke-linecap:butt;stroke-linejoin:miter;stroke-miterlimit:4;stroke-dasharray:none;stroke-opacity:1"
         d="m 268.262,374.316 -0.336,-109.164 c 32.254,-0.304 31.894,0.059 49.242,4.012 17.348,3.961 33.516,6.141 37.031,-2.992" /><path
         id="path262"
         style="fill:#ffffff;fill-opacity:1;fill-rule:nonzero;stroke:none"
         d="m 463.086,280.801 v 3.601 l 7.656,0.016 v -3.598 l -7.656,-0.019" /><path
         id="path264"
         style="fill:#ffffff;fill-opacity:1;fill-rule:nonzero;stroke:none"
         d="m 463.086,311.703 v 3.606 l 7.656,0.011 v -3.597 l -7.656,-0.02" /><path
         id="path266"
         style="fill:none;stroke:#ffffff;stroke-width:2;stroke-linecap:butt;stroke-linejoin:miter;stroke-miterlimit:4;stroke-dasharray:none;stroke-opacity:1"
         d="m 254.164,277.02 h -10.531 l -3.906,2.367 v 5.851 l 3.906,2.672 h 10.531" /><path
         id="path268"
         style="fill:none;stroke:#ffffff;stroke-width:2;stroke-linecap:butt;stroke-linejoin:miter;stroke-miterlimit:4;stroke-dasharray:none;stroke-opacity:1"
         d="m 254.164,308.074 h -10.531 l -3.906,2.364 v 5.863 l 3.906,2.668 h 10.531" /><path
         id="path270"
         style="fill:none;stroke:#ffffff;stroke-width:2;stroke-linecap:butt;stroke-linejoin:miter;stroke-miterlimit:4;stroke-dasharray:none;stroke-opacity:1"
         d="m 254.164,339.145 h -10.531 l -3.906,2.707 v 5.156 l 3.906,3.027 h 10.531" /><path
         id="path272"
         style="fill:none;stroke:#ffffff;stroke-width:2;stroke-linecap:butt;stroke-linejoin:miter;stroke-miterlimit:4;stroke-dasharray:none;stroke-opacity:1"
         d="m 463.164,277.02 h 10.527 l 3.907,2.367 v 5.851 l -3.907,2.672 h -10.527" /><path
         id="path274"
         style="fill:none;stroke:#ffffff;stroke-width:2;stroke-linecap:butt;stroke-linejoin:miter;stroke-miterlimit:4;stroke-dasharray:none;stroke-opacity:1"
         d="m 463.164,308.074 h 10.527 l 3.907,2.364 v 5.863 l -3.907,2.668 h -10.527" /><path
         id="path276"
         style="fill:none;stroke:#ffffff;stroke-width:2;stroke-linecap:butt;stroke-linejoin:miter;stroke-miterlimit:4;stroke-dasharray:none;stroke-opacity:1"
         d="m 463.164,339.145 h 10.527 l 3.907,2.363 v 5.855 l -3.907,2.672 h -10.527" /><path
         id="path278"
         style="fill:#ffffff;fill-opacity:1;fill-rule:nonzero;stroke:none"
         d="m 463.086,342.617 v 3.606 l 7.656,0.011 v -3.597 l -7.656,-0.02" /><path
         id="path280"
         style="fill:#ffffff;fill-opacity:1;fill-rule:nonzero;stroke:none"
         d="m 254.16,280.801 v 3.601 l -7.66,0.016 v -3.598 l 7.66,-0.019" /><path
         id="path282"
         style="fill:#ffffff;fill-opacity:1;fill-rule:nonzero;stroke:none"
         d="m 254.16,311.703 v 3.606 l -7.66,0.011 v -3.597 l 7.66,-0.02" /><path
         id="path284"
         style="fill:#ffffff;fill-opacity:1;fill-rule:nonzero;stroke:none"
         d="m 254.16,342.617 v 3.606 l -7.66,0.011 v -3.597 l 7.66,-0.02" /><path
         id="path286"
         style="fill:none;stroke:#ffffff;stroke-width:1.84800005;stroke-linecap:round;stroke-linejoin:miter;stroke-miterlimit:4;stroke-dasharray:none;stroke-opacity:1"
         d="m 261.262,369.434 -2.461,-2.465" /><path
         id="path288"
         style="fill:none;stroke:#ffffff;stroke-width:1.84800005;stroke-linecap:round;stroke-linejoin:miter;stroke-miterlimit:4;stroke-dasharray:none;stroke-opacity:1"
         d="m 261.184,360.535 -2.461,-2.461" /><path
         id="path290"
         style="fill:none;stroke:#ffffff;stroke-width:1.84800005;stroke-linecap:round;stroke-linejoin:miter;stroke-miterlimit:4;stroke-dasharray:none;stroke-opacity:1"
         d="m 261.105,351.645 -2.46,-2.461" /><path
         id="path292"
         style="fill:none;stroke:#ffffff;stroke-width:1.84800005;stroke-linecap:round;stroke-linejoin:miter;stroke-miterlimit:4;stroke-dasharray:none;stroke-opacity:1"
         d="m 261.023,342.75 -2.46,-2.461" /><path
         id="path294"
         style="fill:none;stroke:#ffffff;stroke-width:1.84800005;stroke-linecap:round;stroke-linejoin:miter;stroke-miterlimit:4;stroke-dasharray:none;stroke-opacity:1"
         d="m 260.945,333.852 -2.453,-2.461" /><path
         id="path296"
         style="fill:none;stroke:#ffffff;stroke-width:1.84800005;stroke-linecap:round;stroke-linejoin:miter;stroke-miterlimit:4;stroke-dasharray:none;stroke-opacity:1"
         d="M 260.875,324.961 258.414,322.5" /><path
         id="path298"
         style="fill:none;stroke:#ffffff;stroke-width:1.84800005;stroke-linecap:round;stroke-linejoin:miter;stroke-miterlimit:4;stroke-dasharray:none;stroke-opacity:1"
         d="m 260.797,316.063 -2.461,-2.461" /><path
         id="path300"
         style="fill:none;stroke:#ffffff;stroke-width:1.84800005;stroke-linecap:round;stroke-linejoin:miter;stroke-miterlimit:4;stroke-dasharray:none;stroke-opacity:1"
         d="m 260.719,307.172 -2.461,-2.461" /><path
         id="path302"
         style="fill:none;stroke:#ffffff;stroke-width:1.84800005;stroke-linecap:round;stroke-linejoin:miter;stroke-miterlimit:4;stroke-dasharray:none;stroke-opacity:1"
         d="m 260.641,298.277 -2.457,-2.461" /><path
         id="path304"
         style="fill:none;stroke:#ffffff;stroke-width:1.84800005;stroke-linecap:round;stroke-linejoin:miter;stroke-miterlimit:4;stroke-dasharray:none;stroke-opacity:1"
         d="m 260.566,289.387 -2.461,-2.461" /><path
         id="path306"
         style="fill:none;stroke:#ffffff;stroke-width:1.84800005;stroke-linecap:round;stroke-linejoin:miter;stroke-miterlimit:4;stroke-dasharray:none;stroke-opacity:1"
         d="m 260.488,280.488 -2.461,-2.461" /><path
         id="path308"
         style="fill:none;stroke:#ffffff;stroke-width:1.84800005;stroke-linecap:round;stroke-linejoin:miter;stroke-miterlimit:4;stroke-dasharray:none;stroke-opacity:1"
         d="m 260.41,271.598 -2.457,-2.461" /><path
         id="path310"
         style="fill:none;stroke:#ffffff;stroke-width:1.84800005;stroke-linecap:round;stroke-linejoin:miter;stroke-miterlimit:4;stroke-dasharray:none;stroke-opacity:1"
         d="m 260.336,262.699 -2.461,-2.461" /><path
         id="path312"
         style="fill:none;stroke:#ffffff;stroke-width:1.84800005;stroke-linecap:round;stroke-linejoin:miter;stroke-miterlimit:4;stroke-dasharray:none;stroke-opacity:1"
         d="m 261.262,257.164 -2.461,-2.461" /><path
         id="path314"
         style="fill:none;stroke:#ffffff;stroke-width:1.84800005;stroke-linecap:round;stroke-linejoin:miter;stroke-miterlimit:4;stroke-dasharray:none;stroke-opacity:1"
         d="m 270.383,257.742 -2.461,-2.461" /><path
         id="path316"
         style="fill:none;stroke:#ffffff;stroke-width:1.84800005;stroke-linecap:round;stroke-linejoin:miter;stroke-miterlimit:4;stroke-dasharray:none;stroke-opacity:1"
         d="m 279.508,258.324 -2.461,-2.461" /><path
         id="path318"
         style="fill:none;stroke:#ffffff;stroke-width:1.84800005;stroke-linecap:round;stroke-linejoin:miter;stroke-miterlimit:4;stroke-dasharray:none;stroke-opacity:1"
         d="m 288.633,258.906 -2.461,-2.461" /><path
         id="path320"
         style="fill:none;stroke:#ffffff;stroke-width:1.84800005;stroke-linecap:round;stroke-linejoin:miter;stroke-miterlimit:4;stroke-dasharray:none;stroke-opacity:1"
         d="m 297.758,259.488 -2.461,-2.461" /><path
         id="path322"
         style="fill:none;stroke:#ffffff;stroke-width:1.84800005;stroke-linecap:round;stroke-linejoin:miter;stroke-miterlimit:4;stroke-dasharray:none;stroke-opacity:1"
         d="m 306.879,260.066 -2.461,-2.461" /><path
         id="path324"
         style="fill:none;stroke:#ffffff;stroke-width:1.84800005;stroke-linecap:round;stroke-linejoin:miter;stroke-miterlimit:4;stroke-dasharray:none;stroke-opacity:1"
         d="m 316.008,260.648 -2.461,-2.46" /><path
         id="path326"
         style="fill:none;stroke:#ffffff;stroke-width:1.84800005;stroke-linecap:round;stroke-linejoin:miter;stroke-miterlimit:4;stroke-dasharray:none;stroke-opacity:1"
         d="m 325.133,261.23 -2.461,-2.46" /><path
         id="path328"
         style="fill:none;stroke:#ffffff;stroke-width:1.84800005;stroke-linecap:round;stroke-linejoin:miter;stroke-miterlimit:4;stroke-dasharray:none;stroke-opacity:1"
         d="m 334.258,261.813 -2.461,-2.461" /><path
         id="path330"
         style="fill:none;stroke:#ffffff;stroke-width:1.84800005;stroke-linecap:round;stroke-linejoin:miter;stroke-miterlimit:4;stroke-dasharray:none;stroke-opacity:1"
         d="m 343.379,262.391 -2.465,-2.457" /><path
         id="path332"
         style="fill:none;stroke:#ffffff;stroke-width:1.84800005;stroke-linecap:round;stroke-linejoin:miter;stroke-miterlimit:4;stroke-dasharray:none;stroke-opacity:1"
         d="m 456.074,369.434 2.461,-2.465" /><path
         id="path334"
         style="fill:none;stroke:#ffffff;stroke-width:1.84800005;stroke-linecap:round;stroke-linejoin:miter;stroke-miterlimit:4;stroke-dasharray:none;stroke-opacity:1"
         d="m 456.152,360.535 2.461,-2.461" /><path
         id="path336"
         style="fill:none;stroke:#ffffff;stroke-width:1.84800005;stroke-linecap:round;stroke-linejoin:miter;stroke-miterlimit:4;stroke-dasharray:none;stroke-opacity:1"
         d="m 456.23,351.645 2.461,-2.461" /><path
         id="path338"
         style="fill:none;stroke:#ffffff;stroke-width:1.84800005;stroke-linecap:round;stroke-linejoin:miter;stroke-miterlimit:4;stroke-dasharray:none;stroke-opacity:1"
         d="m 456.309,342.75 2.461,-2.461" /><path
         id="path340"
         style="fill:none;stroke:#ffffff;stroke-width:1.84800005;stroke-linecap:round;stroke-linejoin:miter;stroke-miterlimit:4;stroke-dasharray:none;stroke-opacity:1"
         d="m 456.387,333.852 2.441,-2.461" /><path
         id="path342"
         style="fill:none;stroke:#ffffff;stroke-width:1.84800005;stroke-linecap:round;stroke-linejoin:miter;stroke-miterlimit:4;stroke-dasharray:none;stroke-opacity:1"
         d="m 456.445,324.961 2.461,-2.461" /><path
         id="path344"
         style="fill:none;stroke:#ffffff;stroke-width:1.84800005;stroke-linecap:round;stroke-linejoin:miter;stroke-miterlimit:4;stroke-dasharray:none;stroke-opacity:1"
         d="m 456.523,316.063 2.461,-2.461" /><path
         id="path346"
         style="fill:none;stroke:#ffffff;stroke-width:1.84800005;stroke-linecap:round;stroke-linejoin:miter;stroke-miterlimit:4;stroke-dasharray:none;stroke-opacity:1"
         d="m 456.621,307.172 2.461,-2.461" /><path
         id="path348"
         style="fill:none;stroke:#ffffff;stroke-width:1.84800005;stroke-linecap:round;stroke-linejoin:miter;stroke-miterlimit:4;stroke-dasharray:none;stroke-opacity:1"
         d="m 456.68,298.277 2.461,-2.461" /><path
         id="path350"
         style="fill:none;stroke:#ffffff;stroke-width:1.84800005;stroke-linecap:round;stroke-linejoin:miter;stroke-miterlimit:4;stroke-dasharray:none;stroke-opacity:1"
         d="m 456.758,289.387 2.461,-2.461" /><path
         id="path352"
         style="fill:none;stroke:#ffffff;stroke-width:1.84800005;stroke-linecap:round;stroke-linejoin:miter;stroke-miterlimit:4;stroke-dasharray:none;stroke-opacity:1"
         d="m 456.836,280.488 2.461,-2.461" /><path
         id="path354"
         style="fill:none;stroke:#ffffff;stroke-width:1.84800005;stroke-linecap:round;stroke-linejoin:miter;stroke-miterlimit:4;stroke-dasharray:none;stroke-opacity:1"
         d="m 456.914,271.598 2.461,-2.461" /><path
         id="path356"
         style="fill:none;stroke:#ffffff;stroke-width:1.84800005;stroke-linecap:round;stroke-linejoin:miter;stroke-miterlimit:4;stroke-dasharray:none;stroke-opacity:1"
         d="m 456.992,262.699 2.461,-2.461" /><path
         id="path358"
         style="fill:none;stroke:#ffffff;stroke-width:1.84800005;stroke-linecap:round;stroke-linejoin:miter;stroke-miterlimit:4;stroke-dasharray:none;stroke-opacity:1"
         d="m 456.074,257.164 2.461,-2.461" /><path
         id="path360"
         style="fill:none;stroke:#ffffff;stroke-width:1.84800005;stroke-linecap:round;stroke-linejoin:miter;stroke-miterlimit:4;stroke-dasharray:none;stroke-opacity:1"
         d="m 446.953,257.742 2.461,-2.461" /><path
         id="path362"
         style="fill:none;stroke:#ffffff;stroke-width:1.84800005;stroke-linecap:round;stroke-linejoin:miter;stroke-miterlimit:4;stroke-dasharray:none;stroke-opacity:1"
         d="m 437.813,258.324 2.46,-2.461" /><path
         id="path364"
         style="fill:none;stroke:#ffffff;stroke-width:1.84800005;stroke-linecap:round;stroke-linejoin:miter;stroke-miterlimit:4;stroke-dasharray:none;stroke-opacity:1"
         d="m 428.691,258.906 2.461,-2.461" /><path
         id="path366"
         style="fill:none;stroke:#ffffff;stroke-width:1.84800005;stroke-linecap:round;stroke-linejoin:miter;stroke-miterlimit:4;stroke-dasharray:none;stroke-opacity:1"
         d="m 419.57,259.488 2.461,-2.461" /><path
         id="path368"
         style="fill:none;stroke:#ffffff;stroke-width:1.84800005;stroke-linecap:round;stroke-linejoin:miter;stroke-miterlimit:4;stroke-dasharray:none;stroke-opacity:1"
         d="m 410.449,260.066 2.461,-2.461" /><path
         id="path370"
         style="fill:none;stroke:#ffffff;stroke-width:1.84800005;stroke-linecap:round;stroke-linejoin:miter;stroke-miterlimit:4;stroke-dasharray:none;stroke-opacity:1"
         d="m 401.328,260.648 2.461,-2.46" /><path
         id="path372"
         style="fill:none;stroke:#ffffff;stroke-width:1.84800005;stroke-linecap:round;stroke-linejoin:miter;stroke-miterlimit:4;stroke-dasharray:none;stroke-opacity:1"
         d="m 392.188,261.23 2.46,-2.46" /><path
         id="path374"
         style="fill:none;stroke:#ffffff;stroke-width:1.84800005;stroke-linecap:round;stroke-linejoin:miter;stroke-miterlimit:4;stroke-dasharray:none;stroke-opacity:1"
         d="m 383.066,261.813 2.461,-2.461" /><path
         id="path376"
         style="fill:none;stroke:#ffffff;stroke-width:1.84800005;stroke-linecap:round;stroke-linejoin:miter;stroke-miterlimit:4;stroke-dasharray:none;stroke-opacity:1"
         d="m 373.945,262.391 2.461,-2.457" /><path
         id="path378"
         style="fill:none;stroke:#000000;stroke-width:3;stroke-linecap:butt;stroke-linejoin:miter;stroke-miterlimit:4;stroke-dasharray:none;stroke-opacity:1"
         d="m 264.379,374.254 7.844,2.711 c 7.84,-6.031 28.121,-4.695 47.035,0.601 15.078,4.219 30.664,6.329 39.414,-8.351 8.73,14.68 24.316,12.57 39.394,8.351 18.926,-5.296 39.2,-6.632 47.051,-0.601 l 7.832,-2.711" /><path
         id="path380"
         style="fill:none;stroke:#ffffff;stroke-width:1.23199999;stroke-linecap:round;stroke-linejoin:miter;stroke-miterlimit:4;stroke-dasharray:none;stroke-opacity:1"
         d="m 341.754,254.473 c 6.098,1.89 6.547,5.125 10.023,6.937 3.477,1.809 3.262,2.184 6.895,2.184" /><path
         id="path382"
         style="fill:none;stroke:#ffffff;stroke-width:1.23199999;stroke-linecap:round;stroke-linejoin:miter;stroke-miterlimit:4;stroke-dasharray:none;stroke-opacity:1"
         d="m 358.672,263.594 c 3.613,0 2.773,-0.375 6.25,-2.184 3.476,-1.812 3.926,-5.047 10.019,-6.937" /><path
         id="path384"
         style="fill:none;stroke:#000000;stroke-width:2;stroke-linecap:butt;stroke-linejoin:miter;stroke-miterlimit:4;stroke-dasharray:none;stroke-opacity:1"
         d="m 358.457,273.844 0.215,95.371" /><path
         id="path386"
         style="fill:none;stroke:#ffffff;stroke-width:2;stroke-linecap:round;stroke-linejoin:miter;stroke-miterlimit:4;stroke-dasharray:none;stroke-opacity:1"
         d="m 346.289,253.43 c 5.449,1.754 3.203,2.98 6.309,4.66 3.105,1.683 2.656,0.844 5.761,0.844" /><path
         id="path388"
         style="fill:none;stroke:#ffffff;stroke-width:2;stroke-linecap:round;stroke-linejoin:miter;stroke-miterlimit:4;stroke-dasharray:none;stroke-opacity:1"
         d="m 370.469,253.43 c -5.449,1.754 -3.262,2.98 -6.367,4.66 -3.106,1.683 -2.657,0.844 -5.743,0.844" /><path
         id="path390"
         style="fill:#000000;fill-opacity:1;fill-rule:nonzero;stroke:none"
         d="m 284.688,146.191 c 16.597,13.813 38.21,24.063 50.14,40.688 -13.035,6.898 -8.387,2.949 -19.535,13.312 -15.367,14.278 -17.125,20.684 -30.238,20.082 -12.434,-0.566 -20.735,-11.484 -24.825,-14.148 -5.449,-3.559 -21.679,-14.602 -21.121,-16.121 4.168,-11.258 45.579,-43.813 45.579,-43.813" /><path
         id="path392"
         style="fill:none;stroke:#ffffff;stroke-width:3.6960001;stroke-linecap:butt;stroke-linejoin:miter;stroke-miterlimit:4;stroke-dasharray:none;stroke-opacity:1"
         d="m 284.688,146.191 c 16.597,13.813 38.21,24.063 50.14,40.688 -13.035,6.898 -8.387,2.949 -19.535,13.312 -15.367,14.278 -17.125,20.684 -30.238,20.082 -12.434,-0.566 -20.735,-11.484 -24.825,-14.148 -5.449,-3.559 -21.679,-14.602 -21.121,-16.121 4.168,-11.258 45.579,-43.813 45.579,-43.813 z" /><path
         id="path394"
         style="fill:#000000;fill-opacity:1;fill-rule:nonzero;stroke:none"
         d="m 433.242,146.191 c -16.601,13.813 -38.222,24.063 -50.137,40.688 13.028,6.898 8.379,2.949 19.532,13.312 15.371,14.278 17.129,20.684 30.234,20.082 12.442,-0.566 20.742,-11.484 24.824,-14.148 5.45,-3.559 21.68,-14.602 21.133,-16.121 -4.18,-11.258 -45.586,-43.813 -45.586,-43.813" /><path
         id="path396"
         style="fill:none;stroke:#ffffff;stroke-width:3.6960001;stroke-linecap:butt;stroke-linejoin:miter;stroke-miterlimit:4;stroke-dasharray:none;stroke-opacity:1"
         d="m 433.242,146.191 c -16.601,13.813 -38.222,24.063 -50.137,40.688 13.028,6.898 8.379,2.949 19.532,13.312 15.371,14.278 17.129,20.684 30.234,20.082 12.442,-0.566 20.742,-11.484 24.824,-14.148 5.45,-3.559 21.68,-14.602 21.133,-16.121 -4.18,-11.258 -45.586,-43.813 -45.586,-43.813 z" /><path
         id="path398"
         style="fill:#000000;fill-opacity:1;fill-rule:nonzero;stroke:none"
         d="m 356.465,103.887 c -31.594,0.504 -90.945,48.355 -85.797,53.957 5.102,5.547 32.805,26.476 45.109,37.785 11.434,10.512 24.707,27.043 41.957,26.691 17.246,-0.351 30.528,-16.179 41.954,-26.691 12.304,-11.309 41.25,-35.938 46.347,-39.02 6.504,-3.933 -55.449,-52.218 -87.031,-52.722 h -2.539" /><path
         id="path400"
         style="fill:none;stroke:#ffffff;stroke-width:3.6960001;stroke-linecap:butt;stroke-linejoin:miter;stroke-miterlimit:4;stroke-dasharray:none;stroke-opacity:1"
         d="m 356.465,103.887 c -31.594,0.504 -90.945,48.355 -85.797,53.957 5.102,5.547 32.805,26.476 45.109,37.785 11.434,10.512 24.707,27.043 41.957,26.691 17.246,-0.351 30.528,-16.179 41.954,-26.691 12.304,-11.309 41.25,-35.938 46.347,-39.02 6.504,-3.933 -55.449,-52.218 -87.031,-52.722 z" /><path
         id="path402"
         style="fill:#ffffff;fill-opacity:1;fill-rule:nonzero;stroke:none"
         d="m 358.906,107.301 c 2.539,0.277 13.614,2.062 19.024,5.804 99.277,54.868 131.406,110.563 131.406,226.997 0,0 0,202.89 0,211.711 0,8.824 -1.719,8.824 -10.371,8.824 H 218.844 c -8.649,0 -10.375,0 -10.375,-8.824 0,-8.821 0,-211.711 0,-211.711 0,-116.434 32.133,-172.129 131.414,-226.997 3.476,-2.093 15.39,-6.203 19.023,-5.804 z m 161.055,463.148 c 1.621,-1.156 0.391,-231.168 0.391,-231.168 0,-122.472 -32.657,-179.593 -139.219,-237.308 -4.922,-2.4613 -18.067,-7.3871 -22.227,-7.5707 -4.043,-0.1679 -19.652,4.2891 -23.761,7.5707 -106.551,57.715 -136.957,114.836 -136.957,237.308 l -0.157,231.168 h 321.93" /><path
         id="path404"
         style="fill:none;stroke:#000000;stroke-width:3;stroke-linecap:butt;stroke-linejoin:miter;stroke-miterlimit:4;stroke-dasharray:none;stroke-opacity:1"
         d="m 358.906,107.301 c 2.539,0.277 13.614,2.062 19.024,5.804 99.277,54.868 131.406,110.563 131.406,226.997 0,0 0,202.89 0,211.711 0,8.824 -1.719,8.824 -10.371,8.824 H 218.844 c -8.649,0 -10.375,0 -10.375,-8.824 0,-8.821 0,-211.711 0,-211.711 0,-116.434 32.133,-172.129 131.414,-226.997 3.476,-2.093 15.39,-6.203 19.023,-5.804 z m 161.055,463.148 c 1.621,-1.156 0.391,-231.168 0.391,-231.168 0,-122.472 -32.657,-179.593 -139.219,-237.308 -4.922,-2.4613 -18.067,-7.3871 -22.227,-7.5707 -4.043,-0.1679 -19.652,4.2891 -23.761,7.5707 -106.551,57.715 -136.957,114.836 -136.957,237.308 l -0.157,231.168 h 321.93" /><path
         id="path406"
         style="fill:none;stroke:#000000;stroke-width:4.92799997;stroke-linecap:butt;stroke-linejoin:miter;stroke-miterlimit:4;stroke-dasharray:none;stroke-opacity:1"
         d="m 519.961,570.449 c 1.621,-1.156 0.391,-231.168 0.391,-231.168 0,-122.472 -32.657,-179.593 -139.219,-237.308 -4.922,-2.4613 -18.067,-7.3871 -22.227,-7.5707 -4.043,-0.1679 -19.652,4.2891 -23.761,7.5707 -106.551,57.715 -136.957,114.836 -136.957,237.308 l -0.157,231.168 h 321.93" /><path
         id="path408"
         style="fill:#000000;fill-opacity:1;fill-rule:nonzero;stroke:none"
         d="M 510.254,415.078 V 562.262 H 207.516 V 415.078 h 302.738" /><path
         id="path410"
         style="fill:none;stroke:#000000;stroke-width:2;stroke-linecap:round;stroke-linejoin:round;stroke-miterlimit:4;stroke-dasharray:none;stroke-opacity:1"
         d="m 493.633,499.508 c -1.426,-0.113 -2.598,-6.996 -1.426,-7.578" /><path
         id="path412"
         style="fill:none;stroke:#000000;stroke-width:1.23199999;stroke-linecap:butt;stroke-linejoin:miter;stroke-miterlimit:4;stroke-dasharray:none;stroke-opacity:1"
         d="m 359.688,506.52 0.234,20.957" /><path
         id="path414"
         style="fill:none;stroke:#000000;stroke-width:1.23199999;stroke-linecap:butt;stroke-linejoin:miter;stroke-miterlimit:4;stroke-dasharray:none;stroke-opacity:1"
         d="m 348.77,504.176 -12.133,17.09" /><path
         id="path416"
         style="fill:none;stroke:#000000;stroke-width:1.23199999;stroke-linecap:butt;stroke-linejoin:miter;stroke-miterlimit:4;stroke-dasharray:none;stroke-opacity:1"
         d="m 341.324,495.859 -19.871,6.7" /><path
         id="path418"
         style="fill:none;stroke:#000000;stroke-width:1.23199999;stroke-linecap:butt;stroke-linejoin:miter;stroke-miterlimit:4;stroke-dasharray:none;stroke-opacity:1"
         d="m 340.176,484.758 -20.004,-6.262" /><path
         id="path420"
         style="fill:none;stroke:#000000;stroke-width:1.23199999;stroke-linecap:butt;stroke-linejoin:miter;stroke-miterlimit:4;stroke-dasharray:none;stroke-opacity:1"
         d="M 345.781,475.102 333.27,458.277" /><path
         id="path422"
         style="fill:none;stroke:#000000;stroke-width:1.23199999;stroke-linecap:butt;stroke-linejoin:miter;stroke-miterlimit:4;stroke-dasharray:none;stroke-opacity:1"
         d="m 355.977,470.582 -0.215,-20.965" /><path
         id="path424"
         style="fill:none;stroke:#000000;stroke-width:1.23199999;stroke-linecap:butt;stroke-linejoin:miter;stroke-miterlimit:4;stroke-dasharray:none;stroke-opacity:1"
         d="m 366.895,472.926 12.148,-17.09" /><path
         id="path426"
         style="fill:none;stroke:#000000;stroke-width:1.23199999;stroke-linecap:butt;stroke-linejoin:miter;stroke-miterlimit:4;stroke-dasharray:none;stroke-opacity:1"
         d="m 374.355,481.234 19.864,-6.687" /><path
         id="path428"
         style="fill:none;stroke:#000000;stroke-width:1.23199999;stroke-linecap:butt;stroke-linejoin:miter;stroke-miterlimit:4;stroke-dasharray:none;stroke-opacity:1"
         d="m 375.508,492.344 20,6.258" /><path
         id="path430"
         style="fill:none;stroke:#000000;stroke-width:1.23199999;stroke-linecap:butt;stroke-linejoin:miter;stroke-miterlimit:4;stroke-dasharray:none;stroke-opacity:1"
         d="m 369.883,501.996 12.5,16.828" /><path
         id="path432"
         style="fill:#ffffff;fill-opacity:1;fill-rule:nonzero;stroke:none"
         d="m 341.383,515.406 c -1.07,2.594 -1.34,3.051 -2.25,5.657 -0.559,1.593 -3.735,2.632 -4.215,4.148 -1.031,3.246 0.102,7.656 -0.016,10.398 0.817,-1.425 2.871,-5.593 4.871,-6.699 1.707,-0.941 3.528,-3.344 4.192,-5.172 0.605,-1.722 0.469,-4.683 3.047,-5.883" /><path
         id="path434"
         style="fill:none;stroke:#ffffff;stroke-width:1.47800004;stroke-linecap:butt;stroke-linejoin:miter;stroke-miterlimit:4;stroke-dasharray:none;stroke-opacity:1"
         d="m 341.383,515.406 c -1.07,2.594 -1.34,3.051 -2.25,5.657 -0.559,1.593 -3.735,2.632 -4.215,4.148 -1.031,3.246 0.102,7.656 -0.016,10.398 0.817,-1.425 2.871,-5.593 4.871,-6.699 1.707,-0.941 3.528,-3.344 4.192,-5.172 0.605,-1.722 0.469,-4.683 3.047,-5.883" /><path
         id="path436"
         style="fill:#ffffff;fill-opacity:1;fill-rule:nonzero;stroke:none"
         d="m 359.668,520.68 c 0.098,-0.266 -10.117,19.183 -10.117,19.183 0.078,0.039 -2.793,-21.422 -2.93,-21.558" /><path
         id="path438"
         style="fill:none;stroke:#ffffff;stroke-width:1.47800004;stroke-linecap:butt;stroke-linejoin:miter;stroke-miterlimit:4;stroke-dasharray:none;stroke-opacity:1"
         d="m 359.668,520.68 c 0.098,-0.266 -10.117,19.183 -10.117,19.183 0.078,0.039 -2.793,-21.422 -2.93,-21.558" /><path
         id="path440"
         style="fill:#ffffff;fill-opacity:1;fill-rule:nonzero;stroke:none"
         d="m 329.055,500.242 c -2.383,1.469 -2.879,1.684 -5.145,3.254 -1.387,0.961 -4.562,-0.062 -5.847,0.879 -2.743,2.02 -4.418,6.254 -6.125,8.402 1.496,-0.672 5.613,-2.836 7.882,-2.554 1.938,0.242 4.821,-0.629 6.426,-1.723 1.512,-1.027 3.125,-3.52 5.934,-2.965" /><path
         id="path442"
         style="fill:none;stroke:#ffffff;stroke-width:1.47800004;stroke-linecap:butt;stroke-linejoin:miter;stroke-miterlimit:4;stroke-dasharray:none;stroke-opacity:1"
         d="m 329.055,500.242 c -2.383,1.469 -2.879,1.684 -5.145,3.254 -1.387,0.961 -4.562,-0.062 -5.847,0.879 -2.743,2.02 -4.418,6.254 -6.125,8.402 1.496,-0.672 5.613,-2.836 7.882,-2.554 1.938,0.242 4.821,-0.629 6.426,-1.723 1.512,-1.027 3.125,-3.52 5.934,-2.965" /><path
         id="path444"
         style="fill:#ffffff;fill-opacity:1;fill-rule:nonzero;stroke:none"
         d="m 340.738,515.25 c 0.242,-0.156 -19.449,9.578 -19.449,9.578 0.039,0.078 10.328,-18.973 10.297,-19.164" /><path
         id="path446"
         style="fill:none;stroke:#ffffff;stroke-width:1.47800004;stroke-linecap:butt;stroke-linejoin:miter;stroke-miterlimit:4;stroke-dasharray:none;stroke-opacity:1"
         d="m 340.738,515.25 c 0.242,-0.156 -19.449,9.578 -19.449,9.578 0.039,0.078 10.328,-18.973 10.297,-19.164" /><path
         id="path448"
         style="fill:#ffffff;fill-opacity:1;fill-rule:nonzero;stroke:none"
         d="m 327.996,480.727 c -2.793,-0.215 -3.312,-0.332 -6.07,-0.391 -1.692,-0.031 -3.66,-2.734 -5.25,-2.723 -3.406,0.02 -7.25,2.453 -9.899,3.192 1.606,0.336 6.211,1.008 7.879,2.57 1.43,1.332 4.274,2.324 6.211,2.383 1.828,0.058 4.602,-1.012 6.543,1.09" /><path
         id="path450"
         style="fill:none;stroke:#ffffff;stroke-width:1.47800004;stroke-linecap:butt;stroke-linejoin:miter;stroke-miterlimit:4;stroke-dasharray:none;stroke-opacity:1"
         d="m 327.996,480.727 c -2.793,-0.215 -3.312,-0.332 -6.07,-0.391 -1.692,-0.031 -3.66,-2.734 -5.25,-2.723 -3.406,0.02 -7.25,2.453 -9.899,3.192 1.606,0.336 6.211,1.008 7.879,2.57 1.43,1.332 4.274,2.324 6.211,2.383 1.828,0.058 4.602,-1.012 6.543,1.09" /><path
         id="path452"
         style="fill:#ffffff;fill-opacity:1;fill-rule:nonzero;stroke:none"
         d="m 328.633,499.734 c 0.277,0.012 -21.371,-3.679 -21.371,-3.679 -0.012,0.086 19.511,-9.282 19.593,-9.453" /><path
         id="path454"
         style="fill:none;stroke:#ffffff;stroke-width:1.47800004;stroke-linecap:butt;stroke-linejoin:miter;stroke-miterlimit:4;stroke-dasharray:none;stroke-opacity:1"
         d="m 328.633,499.734 c 0.277,0.012 -21.371,-3.679 -21.371,-3.679 -0.012,0.086 19.511,-9.282 19.593,-9.453" /><path
         id="path456"
         style="fill:#ffffff;fill-opacity:1;fill-rule:nonzero;stroke:none"
         d="m 338.609,464.32 c -2.129,-1.816 -2.488,-2.222 -4.683,-3.89 -1.344,-1.02 -1.348,-4.36 -2.641,-5.289 -2.769,-1.981 -7.316,-2.27 -9.89,-3.231 1.105,1.219 4.441,4.461 4.871,6.707 0.367,1.918 2.089,4.391 3.621,5.582 1.445,1.117 4.316,1.887 4.656,4.727" /><path
         id="path458"
         style="fill:none;stroke:#ffffff;stroke-width:1.47800004;stroke-linecap:butt;stroke-linejoin:miter;stroke-miterlimit:4;stroke-dasharray:none;stroke-opacity:1"
         d="m 338.609,464.32 c -2.129,-1.816 -2.488,-2.222 -4.683,-3.89 -1.344,-1.02 -1.348,-4.36 -2.641,-5.289 -2.769,-1.981 -7.316,-2.27 -9.89,-3.231 1.105,1.219 4.441,4.461 4.871,6.707 0.367,1.918 2.089,4.391 3.621,5.582 1.445,1.117 4.316,1.887 4.656,4.727" /><path
         id="path460"
         style="fill:#ffffff;fill-opacity:1;fill-rule:nonzero;stroke:none"
         d="m 327.953,480.066 c 0.223,0.176 -15.125,-15.539 -15.125,-15.539 -0.058,0.063 21.238,3.957 21.406,3.871" /><path
         id="path462"
         style="fill:none;stroke:#ffffff;stroke-width:1.47800004;stroke-linecap:butt;stroke-linejoin:miter;stroke-miterlimit:4;stroke-dasharray:none;stroke-opacity:1"
         d="m 327.953,480.066 c 0.223,0.176 -15.125,-15.539 -15.125,-15.539 -0.058,0.063 21.238,3.957 21.406,3.871" /><path
         id="path464"
         style="fill:#ffffff;fill-opacity:1;fill-rule:nonzero;stroke:none"
         d="m 356.836,457.281 c -0.645,-2.722 -0.703,-3.254 -1.504,-5.894 -0.488,-1.617 1.484,-4.328 0.977,-5.836 -1.075,-3.231 -4.59,-6.137 -6.094,-8.422 0.176,1.633 0.957,6.215 -0.02,8.281 -0.82,1.774 -0.879,4.785 -0.332,6.649 0.508,1.754 2.364,4.058 0.977,6.558" /><path
         id="path466"
         style="fill:none;stroke:#ffffff;stroke-width:1.47800004;stroke-linecap:butt;stroke-linejoin:miter;stroke-miterlimit:4;stroke-dasharray:none;stroke-opacity:1"
         d="m 356.836,457.281 c -0.645,-2.722 -0.703,-3.254 -1.504,-5.894 -0.488,-1.617 1.484,-4.328 0.977,-5.836 -1.075,-3.231 -4.59,-6.137 -6.094,-8.422 0.176,1.633 0.957,6.215 -0.02,8.281 -0.82,1.774 -0.879,4.785 -0.332,6.649 0.508,1.754 2.364,4.058 0.977,6.558" /><path
         id="path468"
         style="fill:#ffffff;fill-opacity:1;fill-rule:nonzero;stroke:none"
         d="m 338.961,463.762 c 0.078,0.265 -3.102,-21.461 -3.102,-21.461 -0.082,0.012 14.864,15.687 15.039,15.711" /><path
         id="path470"
         style="fill:none;stroke:#ffffff;stroke-width:1.47800004;stroke-linecap:butt;stroke-linejoin:miter;stroke-miterlimit:4;stroke-dasharray:none;stroke-opacity:1"
         d="m 338.961,463.762 c 0.078,0.265 -3.102,-21.461 -3.102,-21.461 -0.082,0.012 14.864,15.687 15.039,15.711" /><path
         id="path472"
         style="fill:#ffffff;fill-opacity:1;fill-rule:nonzero;stroke:none"
         d="m 375.723,462.309 c 1.074,-2.59 1.347,-3.051 2.265,-5.653 0.547,-1.597 3.711,-2.636 4.2,-4.152 1.035,-3.246 -0.098,-7.656 0.019,-10.399 -0.82,1.426 -2.871,5.594 -4.863,6.7 -1.719,0.941 -3.535,3.343 -4.199,5.168 -0.625,1.726 -0.45,4.687 -3.047,5.886" /><path
         id="path474"
         style="fill:none;stroke:#ffffff;stroke-width:1.47800004;stroke-linecap:butt;stroke-linejoin:miter;stroke-miterlimit:4;stroke-dasharray:none;stroke-opacity:1"
         d="m 375.723,462.309 c 1.074,-2.59 1.347,-3.051 2.265,-5.653 0.547,-1.597 3.711,-2.636 4.2,-4.152 1.035,-3.246 -0.098,-7.656 0.019,-10.399 -0.82,1.426 -2.871,5.594 -4.863,6.7 -1.719,0.941 -3.535,3.343 -4.199,5.168 -0.625,1.726 -0.45,4.687 -3.047,5.886" /><path
         id="path476"
         style="fill:#ffffff;fill-opacity:1;fill-rule:nonzero;stroke:none"
         d="m 357.461,457.035 c -0.098,0.266 10.098,-19.183 10.098,-19.183 -0.079,-0.039 2.812,21.421 2.929,21.558" /><path
         id="path478"
         style="fill:none;stroke:#ffffff;stroke-width:1.47800004;stroke-linecap:butt;stroke-linejoin:miter;stroke-miterlimit:4;stroke-dasharray:none;stroke-opacity:1"
         d="m 357.461,457.035 c -0.098,0.266 10.098,-19.183 10.098,-19.183 -0.079,-0.039 2.812,21.421 2.929,21.558" /><path
         id="path480"
         style="fill:#ffffff;fill-opacity:1;fill-rule:nonzero;stroke:none"
         d="m 388.066,477.477 c 2.383,-1.469 2.872,-1.68 5.137,-3.254 1.387,-0.965 4.551,0.062 5.84,-0.879 2.734,-2.02 4.414,-6.254 6.133,-8.403 -1.504,0.668 -5.606,2.836 -7.871,2.555 -1.953,-0.246 -4.844,0.629 -6.446,1.723 -1.504,1.023 -3.125,3.515 -5.918,2.961" /><path
         id="path482"
         style="fill:none;stroke:#ffffff;stroke-width:1.47800004;stroke-linecap:butt;stroke-linejoin:miter;stroke-miterlimit:4;stroke-dasharray:none;stroke-opacity:1"
         d="m 388.066,477.477 c 2.383,-1.469 2.872,-1.68 5.137,-3.254 1.387,-0.965 4.551,0.062 5.84,-0.879 2.734,-2.02 4.414,-6.254 6.133,-8.403 -1.504,0.668 -5.606,2.836 -7.871,2.555 -1.953,-0.246 -4.844,0.629 -6.446,1.723 -1.504,1.023 -3.125,3.515 -5.918,2.961" /><path
         id="path484"
         style="fill:#ffffff;fill-opacity:1;fill-rule:nonzero;stroke:none"
         d="m 376.367,462.465 c -0.234,0.156 19.453,-9.574 19.453,-9.574 -0.039,-0.078 -10.332,18.968 -10.293,19.16" /><path
         id="path486"
         style="fill:none;stroke:#ffffff;stroke-width:1.47800004;stroke-linecap:butt;stroke-linejoin:miter;stroke-miterlimit:4;stroke-dasharray:none;stroke-opacity:1"
         d="m 376.367,462.465 c -0.234,0.156 19.453,-9.574 19.453,-9.574 -0.039,-0.078 -10.332,18.968 -10.293,19.16" /><path
         id="path488"
         style="fill:#ffffff;fill-opacity:1;fill-rule:nonzero;stroke:none"
         d="m 389.121,496.988 c 2.774,0.215 3.301,0.332 6.074,0.395 1.68,0.035 3.653,2.734 5.235,2.722 3.398,-0.015 7.246,-2.46 9.902,-3.195 -1.621,-0.332 -6.211,-1.004 -7.891,-2.562 -1.425,-1.34 -4.257,-2.332 -6.211,-2.391 -1.816,-0.059 -4.589,1.012 -6.542,-1.09" /><path
         id="path490"
         style="fill:none;stroke:#ffffff;stroke-width:1.47800004;stroke-linecap:butt;stroke-linejoin:miter;stroke-miterlimit:4;stroke-dasharray:none;stroke-opacity:1"
         d="m 389.121,496.988 c 2.774,0.215 3.301,0.332 6.074,0.395 1.68,0.035 3.653,2.734 5.235,2.722 3.398,-0.015 7.246,-2.46 9.902,-3.195 -1.621,-0.332 -6.211,-1.004 -7.891,-2.562 -1.425,-1.34 -4.257,-2.332 -6.211,-2.391 -1.816,-0.059 -4.589,1.012 -6.542,-1.09" /><path
         id="path492"
         style="fill:#ffffff;fill-opacity:1;fill-rule:nonzero;stroke:none"
         d="m 388.477,477.977 c -0.274,-0.008 21.367,3.687 21.367,3.687 0.019,-0.086 -19.512,9.277 -19.59,9.449" /><path
         id="path494"
         style="fill:none;stroke:#ffffff;stroke-width:1.47800004;stroke-linecap:butt;stroke-linejoin:miter;stroke-miterlimit:4;stroke-dasharray:none;stroke-opacity:1"
         d="m 388.477,477.977 c -0.274,-0.008 21.367,3.687 21.367,3.687 0.019,-0.086 -19.512,9.277 -19.59,9.449" /><path
         id="path496"
         style="fill:#ffffff;fill-opacity:1;fill-rule:nonzero;stroke:none"
         d="m 378.496,513.398 c 2.129,1.813 2.481,2.215 4.688,3.887 1.328,1.02 1.347,4.36 2.636,5.289 2.774,1.981 7.305,2.27 9.883,3.231 -1.094,-1.215 -4.433,-4.461 -4.863,-6.703 -0.371,-1.922 -2.09,-4.395 -3.633,-5.586 -1.445,-1.118 -4.297,-1.883 -4.648,-4.727" /><path
         id="path498"
         style="fill:none;stroke:#ffffff;stroke-width:1.47800004;stroke-linecap:butt;stroke-linejoin:miter;stroke-miterlimit:4;stroke-dasharray:none;stroke-opacity:1"
         d="m 378.496,513.398 c 2.129,1.813 2.481,2.215 4.688,3.887 1.328,1.02 1.347,4.36 2.636,5.289 2.774,1.981 7.305,2.27 9.883,3.231 -1.094,-1.215 -4.433,-4.461 -4.863,-6.703 -0.371,-1.922 -2.09,-4.395 -3.633,-5.586 -1.445,-1.118 -4.297,-1.883 -4.648,-4.727" /><path
         id="path500"
         style="fill:#ffffff;fill-opacity:1;fill-rule:nonzero;stroke:none"
         d="m 389.16,497.645 c -0.215,-0.172 15.117,15.543 15.117,15.543 0.059,-0.063 -21.23,-3.961 -21.406,-3.872" /><path
         id="path502"
         style="fill:none;stroke:#ffffff;stroke-width:1.47800004;stroke-linecap:butt;stroke-linejoin:miter;stroke-miterlimit:4;stroke-dasharray:none;stroke-opacity:1"
         d="m 389.16,497.645 c -0.215,-0.172 15.117,15.543 15.117,15.543 0.059,-0.063 -21.23,-3.961 -21.406,-3.872" /><path
         id="path504"
         style="fill:#ffffff;fill-opacity:1;fill-rule:nonzero;stroke:none"
         d="m 360.273,520.43 c 0.645,2.722 0.704,3.258 1.485,5.898 0.488,1.617 -1.465,4.32 -0.957,5.828 1.054,3.235 4.57,6.141 6.094,8.43 -0.176,-1.629 -0.977,-6.215 0,-8.285 0.839,-1.77 0.898,-4.781 0.351,-6.649 -0.508,-1.757 -2.383,-4.058 -0.976,-6.554" /><path
         id="path506"
         style="fill:none;stroke:#ffffff;stroke-width:1.47800004;stroke-linecap:butt;stroke-linejoin:miter;stroke-miterlimit:4;stroke-dasharray:none;stroke-opacity:1"
         d="m 360.273,520.43 c 0.645,2.722 0.704,3.258 1.485,5.898 0.488,1.617 -1.465,4.32 -0.957,5.828 1.054,3.235 4.57,6.141 6.094,8.43 -0.176,-1.629 -0.977,-6.215 0,-8.285 0.839,-1.77 0.898,-4.781 0.351,-6.649 -0.508,-1.757 -2.383,-4.058 -0.976,-6.554" /><path
         id="path508"
         style="fill:#ffffff;fill-opacity:1;fill-rule:nonzero;stroke:none"
         d="m 378.145,513.957 c -0.079,-0.269 3.105,21.465 3.105,21.465 0.078,-0.016 -14.863,-15.695 -15.039,-15.719" /><path
         id="path510"
         style="fill:none;stroke:#ffffff;stroke-width:1.47800004;stroke-linecap:butt;stroke-linejoin:miter;stroke-miterlimit:4;stroke-dasharray:none;stroke-opacity:1"
         d="m 378.145,513.957 c -0.079,-0.269 3.105,21.465 3.105,21.465 0.078,-0.016 -14.863,-15.695 -15.039,-15.719" /><path
         id="path512"
         style="fill:#ffffff;fill-opacity:1;fill-rule:nonzero;stroke:none"
         d="m 358.77,455.438 c 18.418,0 33.359,14.945 33.359,33.371 0,18.421 -14.941,33.363 -33.359,33.363 -18.434,0 -33.372,-14.942 -33.372,-33.363 0,-18.426 14.938,-33.371 33.372,-33.371" /><path
         id="path514"
         style="fill:none;stroke:#000000;stroke-width:2;stroke-linecap:butt;stroke-linejoin:miter;stroke-miterlimit:4;stroke-dasharray:none;stroke-opacity:1"
         d="m 358.77,455.438 c 18.418,0 33.359,14.945 33.359,33.371 0,18.421 -14.941,33.363 -33.359,33.363 -18.434,0 -33.372,-14.942 -33.372,-33.363 0,-18.426 14.938,-33.371 33.372,-33.371 z" /><path
         id="path516"
         style="fill:#000000;fill-opacity:1;fill-rule:nonzero;stroke:none"
         d="m 358.77,459.723 c -0.215,3.824 -0.215,8.363 -1.954,11.949 -0.234,0.711 -1.523,0.473 -2.187,0.949 -0.879,0.481 -1.094,2.149 -0.43,3.106 1.739,2.867 6.25,2.386 8.281,1.437 0.997,-0.476 1.856,-2.867 1.192,-3.824 -0.43,-0.957 -2.676,-0.621 -2.93,-1.438 -0.664,-2.023 0,-2.863 -0.879,-7.64 -0.215,-0.715 -0.547,-4.063 -1.093,-4.539" /><path
         id="path518"
         style="fill:none;stroke:#ffffff;stroke-width:0.493;stroke-linecap:butt;stroke-linejoin:miter;stroke-miterlimit:4;stroke-dasharray:none;stroke-opacity:1"
         d="m 358.77,459.723 c -0.215,3.824 -0.215,8.363 -1.954,11.949 -0.234,0.711 -1.523,0.473 -2.187,0.949 -0.879,0.481 -1.094,2.149 -0.43,3.106 1.739,2.867 6.25,2.386 8.281,1.437 0.997,-0.476 1.856,-2.867 1.192,-3.824 -0.43,-0.957 -2.676,-0.621 -2.93,-1.438 -0.664,-2.023 0,-2.863 -0.879,-7.64 -0.215,-0.715 -0.547,-4.063 -1.093,-4.539" /><path
         id="path520"
         style="fill:#000000;fill-opacity:1;fill-rule:nonzero;stroke:none"
         d="m 357.285,461.289 c -3.066,1.465 -6.836,4.961 -10.703,5.777 -0.664,0.262 -1.367,-0.914 -2.129,-1.144 -0.937,-0.399 -2.269,0.441 -2.523,1.535 -0.91,3.109 0.98,6.395 3.754,7.356 2.578,0.902 3.984,-0.223 4.238,-1.317 0.391,-0.922 -1.328,-2.488 -0.918,-3.187 1.035,-1.746 2.695,-1.95 5.566,-5.524 0.371,-0.605 2.11,-2.152 2.227,-2.859" /><path
         id="path522"
         style="fill:none;stroke:#ffffff;stroke-width:0.493;stroke-linecap:butt;stroke-linejoin:miter;stroke-miterlimit:4;stroke-dasharray:none;stroke-opacity:1"
         d="m 357.285,461.289 c -3.066,1.465 -6.836,4.961 -10.703,5.777 -0.664,0.262 -1.367,-0.914 -2.129,-1.144 -0.937,-0.399 -2.269,0.441 -2.523,1.535 -0.91,3.109 0.98,6.395 3.754,7.356 2.578,0.902 3.984,-0.223 4.238,-1.317 0.391,-0.922 -1.328,-2.488 -0.918,-3.187 1.035,-1.746 2.695,-1.95 5.566,-5.524 0.371,-0.605 2.11,-2.152 2.227,-2.859" /><path
         id="path524"
         style="fill:#000000;fill-opacity:1;fill-rule:nonzero;stroke:none"
         d="m 360.254,460.566 c 5.078,2.411 9.316,5.758 11.23,6.157 0.645,0.257 1.348,-0.918 2.129,-1.141 0.918,-0.402 2.266,0.438 2.52,1.531 0.918,3.106 -0.996,6.399 -3.75,7.356 -2.578,0.898 -4.004,-0.227 -4.258,-1.321 -0.391,-0.918 1.523,-2.64 0.938,-3.183 -1.875,-1.684 -2.5,-1.606 -5.372,-5.18 -0.371,-0.605 -3.32,-3.512 -3.437,-4.219" /><path
         id="path526"
         style="fill:none;stroke:#ffffff;stroke-width:0.493;stroke-linecap:butt;stroke-linejoin:miter;stroke-miterlimit:4;stroke-dasharray:none;stroke-opacity:1"
         d="m 360.254,460.566 c 5.078,2.411 9.316,5.758 11.23,6.157 0.645,0.257 1.348,-0.918 2.129,-1.141 0.918,-0.402 2.266,0.438 2.52,1.531 0.918,3.106 -0.996,6.399 -3.75,7.356 -2.578,0.898 -4.004,-0.227 -4.258,-1.321 -0.391,-0.918 1.523,-2.64 0.938,-3.183 -1.875,-1.684 -2.5,-1.606 -5.372,-5.18 -0.371,-0.605 -3.32,-3.512 -3.437,-4.219" /><path
         id="path528"
         style="fill:#000000;fill-opacity:1;fill-rule:nonzero;stroke:none"
         d="m 342.398,480.051 v -0.387 H 332.25 v 0.387 c 0,0 2.328,0.57 2.715,0.902 0.383,0.324 0.57,1.024 0.57,2.094 v 13.129 c 0,1.058 -0.187,1.758 -0.57,2.086 -0.387,0.332 -2.699,0.98 -2.699,0.98 l -0.016,0.324 h 10.148 l 0.008,-0.324 c 0,0 -2.324,-0.648 -2.715,-0.98 -0.382,-0.328 -0.582,-1.028 -0.582,-2.086 v -13.129 c 0,-1.059 0.2,-1.758 0.582,-2.09 0.391,-0.332 2.707,-0.906 2.707,-0.906" /><path
         id="path530"
         style="fill:#000000;fill-opacity:1;fill-rule:nonzero;stroke:none"
         d="m 364.395,488.16 h -12.481 l 0.098,-5.113 c 0,-1.059 0.176,-1.758 0.566,-2.09 0.391,-0.332 2.715,-0.906 2.715,-0.906 v -0.387 h -10.156 v 0.387 c 0,0 2.343,0.57 2.715,0.902 0.39,0.324 0.566,1.024 0.566,2.094 v 13.129 c 0,1.058 -0.176,1.758 -0.566,2.086 -0.372,0.332 -2.735,0.98 -2.735,0.98 l 0.02,0.324 h 10.156 l -0.039,-0.324 c 0,0 -2.285,-0.648 -2.676,-0.98 -0.39,-0.328 -0.566,-1.028 -0.566,-2.086 v -5.574 h 12.48 v 5.574 c 0,1.058 -0.195,1.758 -0.605,2.086 -0.371,0.332 -2.715,0.98 -2.715,0.98 l 0.019,0.324 h 10.157 l -0.039,-0.324 c 0,0 -2.305,-0.648 -2.676,-0.98 -0.391,-0.328 -0.567,-1.028 -0.567,-2.086 v -13.129 c 0,-1.07 0.176,-1.77 0.567,-2.094 0.371,-0.332 2.715,-0.902 2.715,-0.902 v -0.387 h -10.157 v 0.387 c 0,0 2.325,0.574 2.696,0.906 0.41,0.332 0.605,1.031 0.605,2.09 l -0.097,5.113" /><path
         id="path532"
         style="fill:#000000;fill-opacity:1;fill-rule:nonzero;stroke:none"
         d="m 373.496,480.09 -0.859,4.387 h 1.172 l 0.039,-0.204 c 0.293,-1.335 0.8,-1.589 1.757,-2.308 0.958,-0.727 2.637,-1.324 4.102,-1.324 1.309,0 2.461,0.382 3.398,1.144 0.958,0.77 1.543,0.914 1.543,1.992 0,1.36 -1.21,2.75 -3.652,4.168 l -2.305,1.364 c -2.246,1.316 -3.73,2.336 -4.414,3.07 -0.703,0.726 -1.035,1.609 -1.035,2.644 0,1.54 0.723,2.782 2.188,3.723 1.445,0.938 3.379,1.41 5.761,1.41 1.856,0 2.559,-0.035 4.493,-0.601 l 1.699,-3.981 h -1.211 l -0.078,0.207 c -0.801,2.387 -2.422,2.965 -5.274,2.965 -1.289,0 -2.363,-0.328 -3.203,-0.988 -0.84,-0.66 -1.25,-1.492 -1.25,-2.5 0,-1.274 0.821,-1.91 2.91,-3.129 l 3.34,-1.953 c 2.071,-1.223 3.438,-2.192 4.102,-2.914 0.644,-0.723 0.976,-1.625 0.976,-2.715 0,-1.676 -0.761,-3.008 -2.246,-4 -1.504,-0.992 -3.515,-1.488 -6.035,-1.488 -2.109,0 -4.043,0.492 -5.918,1.031" /><path
         id="path534"
         style="fill:#000000;fill-opacity:1;fill-rule:nonzero;stroke:none"
         d="m 360.273,490.719 c 0.079,3.937 -0.351,11.863 0.293,14.48 1.68,0.074 3.653,0.012 7.325,-1.101 -0.957,3.105 0.156,5.73 0.156,5.73 -1.113,-0.476 -4.805,-0.797 -7.344,-0.797 -0.137,2.071 0.059,4.938 0.527,6.692 -0.761,-0.16 -1.562,-0.442 -2.91,-0.442 -1.347,0 -2.129,0.282 -2.89,0.442 0.449,-1.754 0.664,-4.621 0.508,-6.692 -2.54,0 -6.211,0.321 -7.325,0.797 0,0 1.114,-2.625 0.157,-5.73 3.671,1.113 5.625,1.175 7.324,1.101 0.625,-3.179 0.215,-10.418 0.293,-14.48" /><path
         id="path536"
         style="fill:none;stroke:#ffffff;stroke-width:0.493;stroke-linecap:butt;stroke-linejoin:miter;stroke-miterlimit:4;stroke-dasharray:none;stroke-opacity:1"
         d="m 360.273,490.719 c 0.079,3.937 -0.351,11.863 0.293,14.48 1.68,0.074 3.653,0.012 7.325,-1.101 -0.957,3.105 0.156,5.73 0.156,5.73 -1.113,-0.476 -4.805,-0.797 -7.344,-0.797 -0.137,2.071 0.059,4.938 0.527,6.692 -0.761,-0.16 -1.562,-0.442 -2.91,-0.442 -1.347,0 -2.129,0.282 -2.89,0.442 0.449,-1.754 0.664,-4.621 0.508,-6.692 -2.54,0 -6.211,0.321 -7.325,0.797 0,0 1.114,-2.625 0.157,-5.73 3.671,1.113 5.625,1.175 7.324,1.101 0.625,-3.179 0.215,-10.418 0.293,-14.48" /><path
         id="path538"
         style="fill:#ffffff;fill-opacity:1;fill-rule:nonzero;stroke:none"
         d="m 279.352,490.395 c 0.457,1.789 1.175,4.562 2.109,6.316 0.176,0.551 0.902,0.918 1.41,0.992 1.02,0.152 1.684,-0.785 2.418,-1.508 0.625,-1.054 -0.207,-2.113 -0.086,-3.242 l 0.328,-0.105 c 0.758,0.84 1.403,2.449 1.399,2.812 1.633,0.563 2.422,2.606 1,2.703 1.23,1.172 0.492,2.262 -1.035,2.032 0.5,1.535 -0.887,1.738 -1.719,1.046 0.062,0.946 -0.375,1.45 -1.469,1.446 -0.727,-0.012 -2.074,-1.914 -1.926,-2.571 0.055,-0.222 0.293,0.153 0,0 0.504,1.875 0.653,6.278 -0.097,8.024 -0.125,0 -0.528,0.144 -0.625,0 -0.871,-1.25 -2,-4.977 -2.25,-7.602 -0.25,0.246 -0.879,1.16 -0.746,1.375 0.371,0.625 0.121,2.125 -0.625,2.375 -1.125,0.375 -1.75,0 -2.004,-1.004 -0.625,1.004 -2.121,1.25 -2.121,-0.496 -1.5,0.746 -2.625,-0.129 -1.75,-1.75 -1.5,0.371 -1.375,-2 0.121,-3.125 -0.121,-0.375 0,-2.25 0.504,-3.371 h 0.375 c 0.5,1.121 0,2.5 0.996,3.371 1.004,0.5 2.004,1.25 3.004,0.75 0.5,-0.25 1.125,-0.875 1.125,-1.5 0.375,-2.125 0.695,-5.215 0.57,-7.211" /><path
         id="path540"
         style="fill:#ffffff;fill-opacity:1;fill-rule:nonzero;stroke:none"
         d="m 241.777,490.395 c -0.464,1.789 -1.175,4.562 -2.109,6.316 -0.18,0.551 -0.902,0.918 -1.41,0.992 -1.024,0.152 -1.688,-0.785 -2.418,-1.508 -0.629,-1.054 0.199,-2.113 0.082,-3.242 l -0.324,-0.105 c -0.758,0.84 -1.403,2.449 -1.403,2.812 -1.632,0.563 -2.418,2.606 -0.996,2.703 -1.23,1.172 -0.496,2.262 1.035,2.032 -0.5,1.535 0.887,1.738 1.719,1.046 -0.062,0.946 0.375,1.45 1.469,1.446 0.726,-0.012 2.07,-1.914 1.918,-2.571 -0.047,-0.222 -0.285,0.153 0,0 -0.496,1.875 -0.649,6.278 0.101,8.024 0.125,0 0.524,0.144 0.625,0 0.875,-1.25 2,-4.977 2.254,-7.602 0.246,0.246 0.871,1.16 0.746,1.375 -0.375,0.625 -0.121,2.125 0.625,2.375 1.122,0.375 1.747,0 1.997,-1.004 0.625,1.004 2.125,1.25 2.125,-0.496 1.503,0.746 2.625,-0.129 1.753,-1.75 1.497,0.371 1.372,-2 -0.128,-3.125 0.128,-0.375 0,-2.25 -0.497,-3.371 h -0.378 c -0.497,1.121 0,2.5 -1,3.371 -0.997,0.5 -1.997,1.25 -2.997,0.75 -0.5,-0.25 -1.125,-0.875 -1.125,-1.5 -0.375,-2.125 -0.699,-5.215 -0.57,-7.211" /><path
         id="path542"
         style="fill:#ffffff;fill-opacity:1;fill-rule:nonzero;stroke:none"
         d="m 290.055,477.676 c -0.133,-1.625 0.136,-2.305 0.543,-5.426 1.218,-1.219 1.355,-0.809 1.082,-2.848 1.633,-2.843 1.496,-3.929 0.816,-6.234 -0.68,-2.309 -2.574,-1.766 -2.574,-1.766 0.269,-3.929 -0.067,-2.843 -0.137,-4.879 -0.137,-3.933 -19.187,-4.339 -29.222,-4.339 -10.036,0 -29.083,0.406 -29.219,4.339 -0.074,2.036 -0.406,0.95 -0.137,4.879 0,0 -1.898,-0.543 -2.574,1.766 -0.68,2.305 -0.817,3.391 0.808,6.234 -0.265,2.039 -0.132,1.629 1.086,2.848 0.411,3.121 0.68,3.801 0.543,5.426 -0.363,4.355 -2.98,11.797 -5.695,14.371 -3.387,0 -2.57,0.41 -3.66,2.715 0,0 -0.133,3.121 1.492,5.422 -0.137,2.168 -1.219,3.39 -2.305,5.695 -1.082,2.305 -0.929,3.016 0.559,3.559 1.129,0.41 1.062,0.375 3.672,1.105 2.226,0.613 1.683,0.105 0.73,-1.656 -0.945,-1.762 -0.918,-2.571 -0.918,-4.219 0,0 -0.343,-1.695 0.739,-4.41 0,0 1.004,-0.477 1.652,1.469 0.844,2.546 0.883,3.816 1.648,-0.18 0.645,-3.344 0.465,-3.711 1.121,-6.574 0.672,-2.887 -0.371,-0.75 -2.039,0.882 l -1.203,0.805 c 0,0 0.278,-1.222 1.09,-3.801 2.266,-7.179 6.371,-12.336 7.32,-12.199 1.172,0.258 0.618,1.141 0.223,1.789 -0.262,0.656 -0.91,1.176 -0.519,1.828 0.519,1.039 1.953,1.692 2.996,1.297 0.519,-0.258 0.91,-1.172 0.91,-1.949 -0.262,0 -0.524,-1.176 -0.653,-1.301 -0.128,-0.523 0.856,-1 1.247,-1.261 0.687,-0.458 2.168,0.406 2.304,1.085 0.274,0.954 0,2.442 -0.402,2.985 -0.68,0.676 -2.309,-0.137 -2.168,1.625 -0.41,0 -0.816,-0.133 -1.09,0 -0.406,0.41 -0.363,0.605 -0.269,1.09 0.269,1.445 0.816,2.304 2.441,1.215 -0.816,1.761 1.488,1.898 2.578,0.542 0,2.442 0.676,1.899 1.223,0.547 0.539,1.489 2.976,1.625 2.707,-0.547 0.062,-0.117 1.804,0.438 1.898,0.274 0.539,-0.949 -0.136,-2.578 -1.492,-2.305 -0.406,-0.406 -0.945,-0.679 -1.488,-0.816 v -0.406 c -1.223,-0.137 -1.625,-1.762 -1.086,-2.305 1.351,-1.356 3.254,-1.899 5.285,-1.356 1.219,0.274 1.219,1.762 0.812,2.442 -0.269,0.676 -0.945,1.219 -0.539,1.898 0.539,1.082 2.032,1.762 3.122,1.36 0.539,-0.278 0.945,-1.223 0.945,-2.039 -0.274,0 -0.543,-1.219 -0.68,-1.356 -0.137,-0.543 0.406,-1.223 0.817,-1.488 1.085,-0.817 2.71,1.355 2.71,1.355 0.954,3.25 1.493,6.235 1.899,8.946 0.152,1.027 0.543,2.035 0.137,2.714 -0.411,0.68 -1.762,1.082 -2.036,2.032 -2.421,-0.125 -4.179,-5.164 -4.207,-4.61 -0.234,6.5 -0.128,8.543 -0.128,12.743 0,0.277 1.734,-4.227 4.335,-3.93 0.54,0.41 1.083,1.535 1.899,1.398 -0.137,1.082 -0.195,3.094 -0.465,4.184 -0.137,0.543 -0.363,1.098 -1.836,3.301 -0.535,0.804 -3.125,1.562 -2.039,1.832 2.035,0.406 3.867,0.136 5.899,0.136 2.035,0 3.867,0.27 5.898,-0.136 1.09,-0.27 -1.68,-0.914 -2.418,-2.2 -0.391,-0.687 -1.328,-1.843 -1.465,-2.386 -0.273,-1.082 -0.32,-3.649 -0.453,-4.731 0.809,0.137 1.352,-0.988 1.895,-1.398 2.96,-0.113 4.339,4.207 4.339,3.93 0,-4.2 -0.273,-7.715 -0.136,-12.743 0.019,-0.554 -1.793,4.297 -4.203,4.61 -0.27,-0.95 -1.625,-1.352 -2.032,-2.032 -0.406,-0.679 -0.019,-1.687 0.137,-2.714 0.402,-2.711 0.27,-3.071 1.219,-6.329 0,0 0.676,-4.113 2.574,-4.25 0.488,-0.031 1.762,1.223 1.633,1.766 -0.141,0.137 -0.41,1.356 -0.68,1.356 0,0.816 0.402,1.761 0.945,2.039 1.086,0.402 2.579,-0.278 3.122,-1.36 0.406,-0.679 -0.274,-1.222 -0.543,-1.898 -0.411,-0.68 -0.411,-2.168 0.816,-2.442 2.031,-0.543 3.93,0 5.281,1.356 0.543,0.543 0.141,2.168 -1.082,2.305 v 0.406 c -0.543,0.137 -1.086,0.41 -1.488,0.816 -1.359,-0.273 -2.035,1.356 -1.496,2.305 0.097,0.164 1.832,-0.391 1.898,-0.274 -0.269,2.172 2.168,2.036 2.711,0.547 0.547,1.352 1.223,1.895 1.223,-0.547 1.082,1.356 3.387,1.219 2.578,-0.542 1.625,1.089 2.168,0.23 2.441,-1.215 0.086,-0.485 0.137,-0.68 -0.273,-1.09 -0.27,-0.133 -0.676,0 -1.086,0 0.137,-1.762 -1.488,-0.949 -2.168,-1.625 -0.41,-0.543 -0.68,-2.031 -0.41,-2.985 0.137,-0.679 1.621,-1.543 2.305,-1.085 0.394,0.261 1.382,0.738 1.25,1.261 -0.129,0.125 -0.391,1.301 -0.649,1.301 0,0.777 0.391,1.691 0.906,1.949 1.047,0.395 2.477,-0.258 2.996,-1.297 0.391,-0.652 -0.257,-1.172 -0.519,-1.828 -0.391,-0.648 -0.949,-1.531 0.226,-1.789" /><path
         id="path544"
         style="fill:#ffffff;fill-opacity:1;fill-rule:nonzero;stroke:none"
         d="m 289.918,477.676 c 0.363,4.355 2.98,11.797 5.695,14.371 3.391,0 2.575,0.41 3.664,2.715 0,0 0.137,3.121 -1.496,5.422 0.141,2.168 1.223,3.39 2.309,5.695 1.082,2.305 0.93,3.016 -0.559,3.559 -1.129,0.41 -1.062,0.375 -3.672,1.105 -2.226,0.613 -1.683,0.105 -0.73,-1.656 0.945,-1.762 0.918,-2.571 0.918,-4.219 0,0 0.344,-1.695 -0.738,-4.41 0,0 -1.008,-0.477 -1.653,1.469 -0.843,2.546 -0.883,3.816 -1.652,-0.18 -0.641,-3.344 -0.461,-3.711 -1.121,-6.574 -0.668,-2.887 0.371,-0.75 2.039,0.882 l 1.199,0.805 c 0,0 -0.269,-1.222 -1.086,-3.801 -2.265,-7.179 -6.371,-12.336 -7.316,-12.199" /><path
         id="path546"
         style="fill:none;stroke:#000000;stroke-width:2;stroke-linecap:round;stroke-linejoin:round;stroke-miterlimit:4;stroke-dasharray:none;stroke-opacity:1"
         d="m 260.512,497.02 c -1.879,0 -3.403,1.527 -3.403,3.406 0,1.875 1.524,3.398 3.403,3.398 1.875,0 3.398,-1.523 3.398,-3.398 0,-1.879 -1.523,-3.406 -3.398,-3.406 z" /><path
         id="path548"
         style="fill:none;stroke:#000000;stroke-width:2;stroke-linecap:round;stroke-linejoin:round;stroke-miterlimit:4;stroke-dasharray:none;stroke-opacity:1"
         d="m 289.375,455.957 c 0,2.231 -12.969,4.039 -28.969,4.039 -15.996,0 -28.965,-1.808 -28.965,-4.039" /><path
         id="path550"
         style="fill:none;stroke:#000000;stroke-width:2;stroke-linecap:round;stroke-linejoin:round;stroke-miterlimit:4;stroke-dasharray:none;stroke-opacity:1"
         d="m 289.961,474.867 c 0,2.278 -13.231,4.121 -29.555,4.121 -16.312,0 -29.547,-1.843 -29.547,-4.121" /><path
         id="path552"
         style="fill:#000000;fill-opacity:1;fill-rule:nonzero;stroke:none"
         d="m 276.992,470.25 c -0.621,0 -1.129,0.508 -1.129,1.129 0,0.617 0.508,1.125 1.129,1.125 0.621,0 1.121,-0.508 1.121,-1.125 0,-0.621 -0.5,-1.129 -1.121,-1.129" /><path
         id="path554"
         style="fill:#000000;fill-opacity:1;fill-rule:nonzero;stroke:none"
         d="m 265.25,469.387 c -0.602,0 -1.09,0.48 -1.09,1.082 0,0.601 0.488,1.09 1.09,1.09 0.602,0 1.082,-0.489 1.082,-1.09 0,-0.602 -0.48,-1.082 -1.082,-1.082" /><path
         id="path556"
         style="fill:#000000;fill-opacity:1;fill-rule:nonzero;stroke:none"
         d="m 263.965,466.25 c -0.426,0.426 -0.426,1.113 0,1.539 0.426,0.426 1.113,0.426 1.539,0 0.426,-0.426 0.426,-1.113 0,-1.539 -0.426,-0.426 -1.113,-0.426 -1.539,0" /><path
         id="path558"
         style="fill:#000000;fill-opacity:1;fill-rule:nonzero;stroke:none"
         d="m 260.844,464.941 c 0,0.602 0.488,1.09 1.086,1.09 0.597,0 1.09,-0.488 1.09,-1.09 0,-0.601 -0.493,-1.089 -1.09,-1.089 -0.598,0 -1.086,0.488 -1.086,1.089" /><path
         id="path560"
         style="fill:#000000;fill-opacity:1;fill-rule:nonzero;stroke:none"
         d="m 257.711,466.227 c 0.426,0.418 1.113,0.418 1.535,0 0.426,-0.426 0.426,-1.114 0,-1.539 -0.422,-0.426 -1.109,-0.426 -1.535,0 -0.426,0.425 -0.426,1.113 0,1.539" /><path
         id="path562"
         style="fill:#000000;fill-opacity:1;fill-rule:nonzero;stroke:none"
         d="m 230.66,469.57 c 0.399,0.403 1.055,0.403 1.453,0 0.407,-0.406 0.407,-1.058 0,-1.461 -0.398,-0.406 -1.054,-0.406 -1.453,0 -0.406,0.403 -0.406,1.055 0,1.461" /><path
         id="path564"
         style="fill:#000000;fill-opacity:1;fill-rule:nonzero;stroke:none"
         d="m 232.914,466.188 c 0.402,0.398 1.055,0.398 1.461,0 0.398,-0.407 0.398,-1.059 0,-1.461 -0.406,-0.407 -1.059,-0.407 -1.461,0 -0.402,0.402 -0.402,1.054 0,1.461" /><path
         id="path566"
         style="fill:#000000;fill-opacity:1;fill-rule:nonzero;stroke:none"
         d="m 232.488,462.672 c 0.407,0.398 1.063,0.398 1.461,0 0.406,-0.406 0.406,-1.063 0,-1.461 -0.398,-0.406 -1.054,-0.406 -1.461,0 -0.398,0.398 -0.398,1.055 0,1.461" /><path
         id="path568"
         style="fill:#000000;fill-opacity:1;fill-rule:nonzero;stroke:none"
         d="m 256.402,469.348 c 0.602,0 1.086,-0.493 1.086,-1.09 0,-0.602 -0.484,-1.086 -1.086,-1.086 -0.601,0 -1.086,0.484 -1.086,1.086 0,0.597 0.485,1.09 1.086,1.09" /><path
         id="path570"
         style="fill:#000000;fill-opacity:1;fill-rule:nonzero;stroke:none"
         d="m 257.688,472.48 c 0.421,-0.425 0.421,-1.113 0,-1.539 -0.426,-0.425 -1.118,-0.425 -1.54,0 -0.425,0.426 -0.425,1.114 0,1.536 0.422,0.421 1.114,0.421 1.54,0.003" /><path
         id="path572"
         style="fill:#000000;fill-opacity:1;fill-rule:nonzero;stroke:none"
         d="m 260.805,473.785 c 0,-0.597 -0.489,-1.086 -1.086,-1.086 -0.598,0 -1.086,0.489 -1.086,1.086 0,0.606 0.488,1.09 1.086,1.09 0.597,0 1.086,-0.484 1.086,-1.09" /><path
         id="path574"
         style="fill:#000000;fill-opacity:1;fill-rule:nonzero;stroke:none"
         d="m 263.941,472.504 c -0.425,-0.426 -1.113,-0.426 -1.539,0 -0.425,0.426 -0.425,1.113 0,1.539 0.426,0.426 1.114,0.426 1.539,0 0.418,-0.426 0.418,-1.113 0,-1.539" /><path
         id="path576"
         style="fill:#000000;fill-opacity:1;fill-rule:nonzero;stroke:none"
         d="m 280.551,466.688 c -0.625,0 -1.125,0.507 -1.125,1.128 0,0.622 0.5,1.129 1.125,1.129 0.621,0 1.125,-0.507 1.125,-1.129 0,-0.621 -0.504,-1.128 -1.125,-1.128" /><path
         id="path578"
         style="fill:#000000;fill-opacity:1;fill-rule:nonzero;stroke:none"
         d="m 276.25,465.801 c -0.621,0 -1.121,0.504 -1.121,1.129 0,0.621 0.5,1.121 1.121,1.121 0.621,0 1.129,-0.5 1.129,-1.121 0,-0.625 -0.508,-1.129 -1.129,-1.129" /><path
         id="path580"
         style="fill:#000000;fill-opacity:1;fill-rule:nonzero;stroke:none"
         d="m 272.543,468.473 c -0.625,0 -1.129,0.5 -1.129,1.121 0,0.625 0.504,1.129 1.129,1.129 0.621,0 1.125,-0.504 1.125,-1.129 0,-0.621 -0.504,-1.121 -1.125,-1.121" /><path
         id="path582"
         style="fill:#000000;fill-opacity:1;fill-rule:nonzero;stroke:none"
         d="m 291.012,469.57 c -0.403,0.403 -1.055,0.403 -1.461,0 -0.403,-0.406 -0.403,-1.058 0,-1.461 0.406,-0.406 1.058,-0.406 1.461,0 0.402,0.403 0.402,1.055 0,1.461" /><path
         id="path584"
         style="fill:#000000;fill-opacity:1;fill-rule:nonzero;stroke:none"
         d="m 289.125,465.848 c -0.402,0.406 -1.055,0.402 -1.461,0 -0.402,-0.403 -0.402,-1.059 0,-1.457 0.402,-0.407 1.059,-0.407 1.461,0 0.402,0.398 0.402,1.054 0,1.457" /><path
         id="path586"
         style="fill:#000000;fill-opacity:1;fill-rule:nonzero;stroke:none"
         d="m 289.883,462.234 c -0.403,0.407 -1.055,0.407 -1.461,0 -0.402,-0.398 -0.402,-1.05 0,-1.457 0.406,-0.402 1.058,-0.402 1.461,0 0.406,0.407 0.406,1.059 0,1.457" /><path
         id="path588"
         style="fill:#000000;fill-opacity:1;fill-rule:nonzero;stroke:none"
         d="m 244.629,470.25 c 0.621,0 1.125,0.508 1.125,1.129 0,0.617 -0.504,1.125 -1.125,1.125 -0.625,0 -1.129,-0.508 -1.129,-1.125 0,-0.621 0.504,-1.129 1.129,-1.129" /><path
         id="path590"
         style="fill:#000000;fill-opacity:1;fill-rule:nonzero;stroke:none"
         d="m 241.063,466.688 c 0.625,0 1.128,0.507 1.128,1.128 0,0.622 -0.503,1.129 -1.128,1.129 -0.618,0 -1.122,-0.507 -1.122,-1.129 0,-0.621 0.504,-1.128 1.122,-1.128" /><path
         id="path592"
         style="fill:#000000;fill-opacity:1;fill-rule:nonzero;stroke:none"
         d="m 245.367,465.801 c 0.617,0 1.125,0.504 1.125,1.129 0,0.621 -0.508,1.121 -1.125,1.121 -0.621,0 -1.125,-0.5 -1.125,-1.121 0,-0.625 0.504,-1.129 1.125,-1.129" /><path
         id="path594"
         style="fill:#000000;fill-opacity:1;fill-rule:nonzero;stroke:none"
         d="m 249.078,468.473 c 0.617,0 1.121,0.5 1.121,1.121 0,0.625 -0.504,1.129 -1.121,1.129 -0.625,0 -1.129,-0.504 -1.129,-1.129 0,-0.621 0.504,-1.121 1.129,-1.121" /><path
         id="path596"
         style="fill:none;stroke:#000000;stroke-width:2;stroke-linecap:round;stroke-linejoin:round;stroke-miterlimit:4;stroke-dasharray:none;stroke-opacity:1"
         d="m 297.645,499.398 c -1.415,-0.105 -2.586,-6.992 -1.422,-7.578" /><path
         id="path598"
         style="fill:none;stroke:#000000;stroke-width:2;stroke-linecap:round;stroke-linejoin:round;stroke-miterlimit:4;stroke-dasharray:none;stroke-opacity:1"
         d="m 223.082,499.672 c 1.414,-0.113 2.594,-6.996 1.426,-7.578" /><path
         id="path600"
         style="fill:#ffffff;fill-opacity:1;fill-rule:nonzero;stroke:none"
         d="m 438.047,490.395 c -0.469,1.789 -1.172,4.562 -2.109,6.316 -0.176,0.551 -0.918,0.918 -1.426,0.992 -0.996,0.152 -1.68,-0.785 -2.403,-1.508 -0.625,-1.054 0.196,-2.113 0.079,-3.242 l -0.333,-0.105 c -0.742,0.84 -1.386,2.449 -1.386,2.812 -1.641,0.563 -2.422,2.606 -1.016,2.703 -1.211,1.172 -0.488,2.262 1.055,2.032 -0.508,1.535 0.879,1.738 1.719,1.046 -0.079,0.946 0.371,1.45 1.464,1.446 0.723,-0.012 2.071,-1.914 1.914,-2.571 -0.039,-0.222 -0.292,0.153 0,0 -0.488,1.875 -0.644,6.278 0.098,8.024 0.137,0 0.527,0.144 0.625,0 0.879,-1.25 2.012,-4.977 2.246,-7.602 0.254,0.246 0.879,1.16 0.762,1.375 -0.371,0.625 -0.137,2.125 0.625,2.375 1.113,0.375 1.738,0 1.992,-1.004 0.625,1.004 2.129,1.25 2.129,-0.496 1.504,0.746 2.617,-0.129 1.758,-1.75 1.484,0.371 1.367,-2 -0.137,-3.125 0.137,-0.375 0,-2.25 -0.488,-3.371 h -0.391 c -0.488,1.121 0,2.5 -0.996,3.371 -0.996,0.5 -1.992,1.25 -2.988,0.75 -0.508,-0.25 -1.133,-0.875 -1.133,-1.5 -0.371,-2.125 -0.703,-5.215 -0.566,-7.211" /><path
         id="path602"
         style="fill:#ffffff;fill-opacity:1;fill-rule:nonzero;stroke:none"
         d="m 475.625,490.395 c 0.449,1.789 1.172,4.562 2.109,6.316 0.176,0.551 0.899,0.918 1.407,0.992 1.015,0.152 1.679,-0.785 2.422,-1.508 0.625,-1.054 -0.215,-2.113 -0.098,-3.242 l 0.332,-0.105 c 0.762,0.84 1.406,2.449 1.406,2.812 1.621,0.563 2.422,2.606 0.996,2.703 1.231,1.172 0.489,2.262 -1.035,2.032 0.488,1.535 -0.879,1.738 -1.719,1.046 0.059,0.946 -0.371,1.45 -1.465,1.446 -0.742,-0.012 -2.07,-1.914 -1.933,-2.571 0.058,-0.222 0.293,0.153 0,0 0.508,1.875 0.664,6.278 -0.098,8.024 -0.117,0 -0.527,0.144 -0.625,0 -0.879,-1.25 -1.992,-4.977 -2.246,-7.602 -0.254,0.246 -0.879,1.16 -0.742,1.375 0.371,0.625 0.117,2.125 -0.625,2.375 -1.133,0.375 -1.758,0 -2.012,-1.004 -0.625,1.004 -2.129,1.25 -2.129,-0.496 -1.484,0.746 -2.617,-0.129 -1.738,-1.75 -1.504,0.371 -1.387,-2 0.117,-3.125 -0.117,-0.375 0,-2.25 0.508,-3.371 h 0.371 c 0.508,1.121 0,2.5 0.996,3.371 0.996,0.5 2.012,1.25 3.008,0.75 0.488,-0.25 1.113,-0.875 1.113,-1.5 0.391,-2.125 0.703,-5.215 0.586,-7.211" /><path
         id="path604"
         style="fill:#ffffff;fill-opacity:1;fill-rule:nonzero;stroke:none"
         d="m 427.344,477.676 c 0.136,-1.625 -0.137,-2.305 -0.547,-5.426 -1.231,-1.219 -1.348,-0.809 -1.094,-2.848 -1.621,-2.843 -1.484,-3.929 -0.801,-6.234 0.664,-2.309 2.578,-1.766 2.578,-1.766 -0.273,-3.929 0.059,-2.843 0.137,-4.879 0.137,-3.933 19.18,-4.339 29.219,-4.339 10.039,0 29.082,0.406 29.219,4.339 0.058,2.036 0.41,0.95 0.136,4.879 0,0 1.895,-0.543 2.579,1.766 0.683,2.305 0.8,3.391 -0.821,6.234 0.274,2.039 0.137,1.629 -1.074,2.848 -0.41,3.121 -0.684,3.801 -0.547,5.426 0.352,4.355 2.988,11.797 5.684,14.371 3.398,0 2.578,0.41 3.672,2.715 0,0 0.136,3.121 -1.485,5.422 0.117,2.168 1.211,3.39 2.285,5.695 1.094,2.305 0.938,3.016 -0.546,3.559 -1.133,0.41 -1.075,0.375 -3.672,1.105 -2.227,0.613 -1.68,0.105 -0.743,-1.656 0.957,-1.762 0.918,-2.571 0.918,-4.219 0,0 0.352,-1.695 -0.722,-4.41 0,0 -1.016,-0.477 -1.66,1.469 -0.84,2.546 -0.879,3.816 -1.641,-0.18 -0.664,-3.344 -0.469,-3.711 -1.133,-6.574 -0.664,-2.887 0.371,-0.75 2.051,0.882 l 1.191,0.805 c 0,0 -0.273,-1.222 -1.074,-3.801 -2.285,-7.179 -6.387,-12.336 -7.344,-12.199 -1.152,0.258 -0.605,1.141 -0.214,1.789 0.273,0.656 0.918,1.176 0.527,1.828 -0.527,1.039 -1.953,1.692 -3.008,1.297 -0.508,-0.258 -0.898,-1.172 -0.898,-1.949 0.254,0 0.527,-1.176 0.644,-1.301 0.137,-0.523 -0.859,-1 -1.25,-1.261 -0.683,-0.458 -2.168,0.406 -2.305,1.085 -0.273,0.954 0,2.442 0.411,2.985 0.683,0.676 2.304,-0.137 2.168,1.625 0.41,0 0.82,-0.133 1.093,0 0.391,0.41 0.352,0.605 0.274,1.09 -0.274,1.445 -0.821,2.304 -2.442,1.215 0.801,1.761 -1.504,1.898 -2.578,0.542 0,2.442 -0.683,1.899 -1.23,0.547 -0.547,1.489 -2.969,1.625 -2.715,-0.547 -0.059,-0.117 -1.797,0.438 -1.895,0.274 -0.527,-0.949 0.137,-2.578 1.504,-2.305 0.391,-0.406 0.938,-0.679 1.485,-0.816 v -0.406 c 1.23,-0.137 1.621,-1.762 1.074,-2.305 -1.348,-1.356 -3.242,-1.899 -5.274,-1.356 -1.23,0.274 -1.23,1.762 -0.82,2.442 0.274,0.676 0.957,1.219 0.547,1.898 -0.547,1.082 -2.031,1.762 -3.125,1.36 -0.547,-0.278 -0.957,-1.223 -0.957,-2.039 0.293,0 0.547,-1.219 0.684,-1.356 0.136,-0.543 -0.391,-1.223 -0.801,-1.488 -1.094,-0.817 -2.715,1.355 -2.715,1.355 -0.957,3.25 -1.504,6.235 -1.914,8.946 -0.137,1.027 -0.527,2.035 -0.117,2.714 0.39,0.68 1.758,1.082 2.031,2.032 2.422,-0.125 4.18,-5.164 4.199,-4.61 0.235,6.5 0.137,8.543 0.137,12.743 0,0.277 -1.738,-4.227 -4.336,-3.93 -0.547,0.41 -1.094,1.535 -1.914,1.398 0.156,1.082 0.195,3.094 0.488,4.184 0.117,0.543 0.352,1.098 1.836,3.301 0.527,0.804 3.106,1.562 2.031,1.832 -2.031,0.406 -3.867,0.136 -5.898,0.136 -2.031,0 -3.867,0.27 -5.898,-0.136 -1.094,-0.27 1.679,-0.914 2.402,-2.2 0.41,-0.687 1.348,-1.843 1.484,-2.386 0.254,-1.082 0.313,-3.649 0.449,-4.731 -0.82,0.137 -1.347,-0.988 -1.894,-1.398 -2.969,-0.113 -4.356,4.207 -4.356,3.93 0,-4.2 0.293,-7.715 0.157,-12.743 -0.02,-0.554 1.777,4.297 4.199,4.61 0.254,-0.95 1.621,-1.352 2.031,-2.032 0.41,-0.679 0.02,-1.687 -0.137,-2.714 -0.41,-2.711 -0.273,-3.071 -1.21,-6.329 0,0 -0.684,-4.113 -2.598,-4.25 -0.469,-0.031 -1.758,1.223 -1.621,1.766 0.136,0.137 0.41,1.356 0.683,1.356 0,0.816 -0.41,1.761 -0.957,2.039 -1.074,0.402 -2.558,-0.278 -3.105,-1.36 -0.41,-0.679 0.273,-1.222 0.547,-1.898 0.39,-0.68 0.39,-2.168 -0.821,-2.442 -2.05,-0.543 -3.945,0 -5.293,1.356 -0.546,0.543 -0.136,2.168 1.094,2.305 v 0.406 c 0.528,0.137 1.074,0.41 1.485,0.816 1.347,-0.273 2.031,1.356 1.484,2.305 -0.078,0.164 -1.836,-0.391 -1.895,-0.274 0.274,2.172 -2.168,2.036 -2.714,0.547 -0.528,1.352 -1.211,1.895 -1.211,-0.547 -1.094,1.356 -3.399,1.219 -2.578,-0.542 -1.622,1.089 -2.168,0.23 -2.442,-1.215 -0.098,-0.485 -0.137,-0.68 0.274,-1.09 0.273,-0.133 0.683,0 1.074,0 -0.137,-1.762 1.504,-0.949 2.168,-1.625 0.41,-0.543 0.683,-2.031 0.41,-2.985 -0.137,-0.679 -1.621,-1.543 -2.305,-1.085 -0.39,0.261 -1.367,0.738 -1.25,1.261 0.137,0.125 0.391,1.301 0.664,1.301 0,0.777 -0.39,1.691 -0.918,1.949 -1.035,0.395 -2.48,-0.258 -2.988,-1.297 -0.391,-0.652 0.254,-1.172 0.508,-1.828 0.39,-0.648 0.957,-1.531 -0.215,-1.789" /><path
         id="path606"
         style="fill:#ffffff;fill-opacity:1;fill-rule:nonzero;stroke:none"
         d="m 427.48,477.676 c -0.371,4.355 -2.988,11.797 -5.703,14.371 -3.398,0 -2.578,0.41 -3.652,2.715 0,0 -0.137,3.121 1.484,5.422 -0.136,2.168 -1.23,3.39 -2.304,5.695 -1.094,2.305 -0.938,3.016 0.566,3.559 1.113,0.41 1.055,0.375 3.672,1.105 2.207,0.613 1.68,0.105 0.723,-1.656 -0.938,-1.762 -0.918,-2.571 -0.918,-4.219 0,0 -0.352,-1.695 0.742,-4.41 0,0 0.996,-0.477 1.66,1.469 0.82,2.546 0.879,3.816 1.641,-0.18 0.644,-3.344 0.449,-3.711 1.113,-6.574 0.684,-2.887 -0.371,-0.75 -2.031,0.882 l -1.211,0.805 c 0,0 0.293,-1.222 1.093,-3.801 2.266,-7.179 6.368,-12.336 7.325,-12.199" /><path
         id="path608"
         style="fill:none;stroke:#000000;stroke-width:2;stroke-linecap:round;stroke-linejoin:round;stroke-miterlimit:4;stroke-dasharray:none;stroke-opacity:1"
         d="m 456.875,497.02 c 1.895,0 3.418,1.527 3.418,3.406 0,1.875 -1.523,3.398 -3.418,3.398 -1.875,0 -3.398,-1.523 -3.398,-3.398 0,-1.879 1.523,-3.406 3.398,-3.406 z" /><path
         id="path610"
         style="fill:none;stroke:#000000;stroke-width:2;stroke-linecap:round;stroke-linejoin:round;stroke-miterlimit:4;stroke-dasharray:none;stroke-opacity:1"
         d="m 428.008,455.957 c 0,2.231 12.988,4.039 28.984,4.039 15.996,0 28.965,-1.808 28.965,-4.039" /><path
         id="path612"
         style="fill:none;stroke:#000000;stroke-width:2;stroke-linecap:round;stroke-linejoin:round;stroke-miterlimit:4;stroke-dasharray:none;stroke-opacity:1"
         d="m 427.441,474.867 c 0,2.278 13.223,4.121 29.551,4.121 16.309,0 29.551,-1.843 29.551,-4.121" /><path
         id="path614"
         style="fill:none;stroke:#000000;stroke-width:2;stroke-linecap:round;stroke-linejoin:round;stroke-miterlimit:4;stroke-dasharray:none;stroke-opacity:1"
         d="m 427.441,474.867 c 0,2.278 13.223,4.121 29.551,4.121" /><path
         id="path616"
         style="fill:#000000;fill-opacity:1;fill-rule:nonzero;stroke:none"
         d="m 440.391,470.25 c 0.625,0 1.132,0.508 1.132,1.129 0,0.617 -0.507,1.125 -1.132,1.125 -0.606,0 -1.114,-0.508 -1.114,-1.125 0,-0.621 0.508,-1.129 1.114,-1.129" /><path
         id="path618"
         style="fill:#000000;fill-opacity:1;fill-rule:nonzero;stroke:none"
         d="m 452.148,469.387 c 0.606,0 1.094,0.48 1.094,1.082 0,0.601 -0.488,1.09 -1.094,1.09 -0.605,0 -1.093,-0.489 -1.093,-1.09 0,-0.602 0.488,-1.082 1.093,-1.082" /><path
         id="path620"
         style="fill:#000000;fill-opacity:1;fill-rule:nonzero;stroke:none"
         d="m 453.438,466.25 c 0.41,0.426 0.41,1.113 0,1.539 -0.43,0.426 -1.114,0.426 -1.543,0 -0.43,-0.426 -0.43,-1.113 0,-1.539 0.429,-0.426 1.113,-0.426 1.543,0" /><path
         id="path622"
         style="fill:#000000;fill-opacity:1;fill-rule:nonzero;stroke:none"
         d="m 456.563,464.941 c 0,0.602 -0.489,1.09 -1.094,1.09 -0.606,0 -1.094,-0.488 -1.094,-1.09 0,-0.601 0.488,-1.089 1.094,-1.089 0.605,0 1.094,0.488 1.094,1.089" /><path
         id="path624"
         style="fill:#000000;fill-opacity:1;fill-rule:nonzero;stroke:none"
         d="m 459.688,466.227 c -0.43,0.418 -1.114,0.418 -1.543,0 -0.411,-0.426 -0.411,-1.114 0,-1.539 0.429,-0.426 1.113,-0.426 1.543,0 0.429,0.425 0.429,1.113 0,1.539" /><path
         id="path626"
         style="fill:#000000;fill-opacity:1;fill-rule:nonzero;stroke:none"
         d="m 486.738,469.57 c -0.41,0.403 -1.054,0.403 -1.465,0 -0.41,-0.406 -0.41,-1.058 0,-1.461 0.411,-0.406 1.055,-0.406 1.465,0 0.391,0.403 0.391,1.055 0,1.461" /><path
         id="path628"
         style="fill:#000000;fill-opacity:1;fill-rule:nonzero;stroke:none"
         d="m 484.492,466.188 c -0.41,0.398 -1.074,0.398 -1.465,0 -0.41,-0.407 -0.41,-1.059 0,-1.461 0.391,-0.407 1.055,-0.407 1.465,0 0.391,0.402 0.391,1.054 0,1.461" /><path
         id="path630"
         style="fill:#000000;fill-opacity:1;fill-rule:nonzero;stroke:none"
         d="m 484.902,462.672 c -0.41,0.398 -1.054,0.398 -1.464,0 -0.391,-0.406 -0.391,-1.063 0,-1.461 0.41,-0.406 1.054,-0.406 1.464,0 0.411,0.398 0.411,1.055 0,1.461" /><path
         id="path632"
         style="fill:#000000;fill-opacity:1;fill-rule:nonzero;stroke:none"
         d="m 460.996,469.348 c -0.605,0 -1.094,-0.493 -1.094,-1.09 0,-0.602 0.489,-1.086 1.094,-1.086 0.586,0 1.074,0.484 1.074,1.086 0,0.597 -0.488,1.09 -1.074,1.09" /><path
         id="path634"
         style="fill:#000000;fill-opacity:1;fill-rule:nonzero;stroke:none"
         d="m 459.707,472.48 c -0.43,-0.425 -0.43,-1.113 0,-1.539 0.43,-0.425 1.113,-0.425 1.543,0 0.41,0.426 0.41,1.114 0,1.536 -0.43,0.421 -1.113,0.421 -1.543,0.003" /><path
         id="path636"
         style="fill:#000000;fill-opacity:1;fill-rule:nonzero;stroke:none"
         d="m 456.582,473.785 c 0,-0.597 0.488,-1.086 1.094,-1.086 0.605,0 1.094,0.489 1.074,1.086 0.02,0.606 -0.469,1.09 -1.074,1.09 -0.606,0 -1.094,-0.484 -1.094,-1.09" /><path
         id="path638"
         style="fill:#000000;fill-opacity:1;fill-rule:nonzero;stroke:none"
         d="m 453.457,472.504 c 0.43,-0.426 1.113,-0.426 1.543,0 0.41,0.426 0.41,1.113 0,1.539 -0.43,0.426 -1.113,0.426 -1.543,0 -0.43,-0.426 -0.43,-1.113 0,-1.539" /><path
         id="path640"
         style="fill:#000000;fill-opacity:1;fill-rule:nonzero;stroke:none"
         d="m 436.836,466.688 c 0.625,0 1.133,0.507 1.133,1.128 0,0.622 -0.508,1.129 -1.133,1.129 -0.625,0 -1.113,-0.507 -1.113,-1.129 0,-0.621 0.488,-1.128 1.113,-1.128" /><path
         id="path642"
         style="fill:#000000;fill-opacity:1;fill-rule:nonzero;stroke:none"
         d="m 441.133,465.801 c 0.625,0 1.133,0.504 1.133,1.129 0,0.621 -0.508,1.121 -1.133,1.121 -0.606,0 -1.113,-0.5 -1.113,-1.121 0,-0.625 0.507,-1.129 1.113,-1.129" /><path
         id="path644"
         style="fill:#000000;fill-opacity:1;fill-rule:nonzero;stroke:none"
         d="m 444.863,468.473 c 0.606,0 1.114,0.5 1.114,1.121 0,0.625 -0.508,1.129 -1.114,1.129 -0.625,0 -1.133,-0.504 -1.133,-1.129 0,-0.621 0.508,-1.121 1.133,-1.121" /><path
         id="path646"
         style="fill:#000000;fill-opacity:1;fill-rule:nonzero;stroke:none"
         d="m 426.387,469.57 c 0.39,0.403 1.054,0.403 1.445,0 0.41,-0.406 0.41,-1.058 0,-1.461 -0.391,-0.406 -1.055,-0.406 -1.445,0 -0.41,0.403 -0.41,1.055 0,1.461" /><path
         id="path648"
         style="fill:#000000;fill-opacity:1;fill-rule:nonzero;stroke:none"
         d="m 428.262,465.848 c 0.41,0.406 1.054,0.402 1.465,0 0.41,-0.403 0.41,-1.059 0,-1.457 -0.411,-0.407 -1.055,-0.407 -1.465,0 -0.391,0.398 -0.391,1.054 0,1.457" /><path
         id="path650"
         style="fill:#000000;fill-opacity:1;fill-rule:nonzero;stroke:none"
         d="m 427.5,462.234 c 0.41,0.407 1.074,0.407 1.465,0 0.41,-0.398 0.41,-1.05 0,-1.457 -0.391,-0.402 -1.055,-0.402 -1.465,0 -0.391,0.407 -0.391,1.059 0,1.457" /><path
         id="path652"
         style="fill:#000000;fill-opacity:1;fill-rule:nonzero;stroke:none"
         d="m 472.773,470.25 c -0.625,0 -1.132,0.508 -1.132,1.129 0,0.617 0.507,1.125 1.132,1.125 0.606,0 1.133,-0.508 1.133,-1.125 0,-0.621 -0.527,-1.129 -1.133,-1.129" /><path
         id="path654"
         style="fill:#000000;fill-opacity:1;fill-rule:nonzero;stroke:none"
         d="m 476.328,466.688 c -0.625,0 -1.133,0.507 -1.133,1.128 0,0.622 0.508,1.129 1.133,1.129 0.625,0 1.133,-0.507 1.133,-1.129 0,-0.621 -0.508,-1.128 -1.133,-1.128" /><path
         id="path656"
         style="fill:#000000;fill-opacity:1;fill-rule:nonzero;stroke:none"
         d="m 472.031,465.801 c -0.625,0 -1.133,0.504 -1.133,1.129 0,0.621 0.508,1.121 1.133,1.121 0.625,0 1.133,-0.5 1.133,-1.121 0,-0.625 -0.508,-1.129 -1.133,-1.129" /><path
         id="path658"
         style="fill:#000000;fill-opacity:1;fill-rule:nonzero;stroke:none"
         d="m 468.32,468.473 c -0.625,0 -1.132,0.5 -1.132,1.121 0,0.625 0.507,1.129 1.132,1.129 0.625,0 1.133,-0.504 1.133,-1.129 0,-0.621 -0.508,-1.121 -1.133,-1.121" /><path
         id="path660"
         style="fill:none;stroke:#000000;stroke-width:2;stroke-linecap:round;stroke-linejoin:round;stroke-miterlimit:4;stroke-dasharray:none;stroke-opacity:1"
         d="m 419.746,499.398 c 1.426,-0.105 2.598,-6.992 1.426,-7.578" /><path
         id="path662"
         style="fill:none;stroke:#000000;stroke-width:2;stroke-linecap:round;stroke-linejoin:round;stroke-miterlimit:4;stroke-dasharray:none;stroke-opacity:1"
         d="m 494.316,499.672 c -1.425,-0.113 -2.597,-6.996 -1.425,-7.578" /><path
         id="path664"
         style="fill:#000000;fill-opacity:1;fill-rule:nonzero;stroke:none"
         d="m 292.34,305.043 c -0.57,1.148 -1.125,1.828 -1.672,2.043 -0.539,0.215 -1.227,0.219 -2.039,0.019 -1.395,-0.347 -2.633,-1.089 -3.731,-2.226 -1.515,-1.586 -2.296,-3.649 -2.347,-6.191 -0.012,-0.797 0.054,-1.5 0.207,-2.102 0.316,-1.281 0.937,-2.184 1.871,-2.699 0.934,-0.512 2.109,-0.594 3.531,-0.246 1.281,0.32 2.266,0.668 2.945,1.043 1.313,0.722 2.301,1.785 2.977,3.203 0.023,-0.336 0.066,-0.637 0.137,-0.907 0.156,-0.636 0.41,-1.078 0.754,-1.312 0.265,-0.18 0.597,-0.219 0.988,-0.121 0.66,0.16 1.117,0.484 1.379,0.961 0.348,0.656 0.543,1.808 0.586,3.465 l -0.559,-0.145 c -0.043,-0.441 -0.101,-0.773 -0.176,-1.004 -0.222,-0.699 -0.625,-1.113 -1.191,-1.258 -0.336,-0.086 -0.617,-0.039 -0.844,0.145 -0.222,0.18 -0.406,0.547 -0.543,1.098 l 2.594,10.132 -4.137,-1.019 z m -1.41,-5.973 c -0.344,-1.453 -0.676,-2.484 -0.996,-3.09 -0.422,-0.804 -0.965,-1.289 -1.621,-1.449 -0.34,-0.082 -0.61,-0.027 -0.797,0.172 -0.192,0.199 -0.344,0.527 -0.453,0.988 -0.086,0.325 -0.145,0.809 -0.184,1.461 -0.031,0.653 -0.047,1.563 -0.039,2.735 0.051,1.937 0.195,3.375 0.441,4.301 0.336,1.238 0.903,1.953 1.703,2.156 0.606,0.144 1.188,-0.055 1.746,-0.606 0.563,-0.547 0.965,-1.312 1.208,-2.293 -0.336,-1.465 -0.672,-2.918 -1.008,-4.375" /><path
         id="path666"
         style="fill:#000000;fill-opacity:1;fill-rule:nonzero;stroke:none"
         d="m 294.34,314.465 c -0.102,0.48 -0.32,0.832 -0.656,1.051 -0.332,0.222 -0.719,0.289 -1.149,0.199 -0.394,-0.086 -0.738,-0.27 -1.019,-0.563 -0.286,-0.3 -0.446,-0.672 -0.485,-1.129 -0.019,-0.171 -0.015,-0.332 0.02,-0.472 0.125,-0.629 0.59,-0.86 1.375,-0.696 l 0.539,0.25 c -0.004,-0.316 -0.195,-0.722 -0.563,-1.21 -0.363,-0.489 -0.816,-0.926 -1.351,-1.325 l 0.429,-0.84 c 0.704,0.411 1.352,1.028 1.95,1.84 0.593,0.821 0.918,1.567 0.965,2.231 0,0.262 -0.016,0.48 -0.055,0.664" /><path
         id="path668"
         style="fill:#000000;fill-opacity:1;fill-rule:nonzero;stroke:none"
         d="m 308.328,300.234 c -0.32,-0.679 -0.734,-1.058 -1.238,-1.152 -0.797,-0.148 -1.449,0.266 -1.961,1.234 l 0.496,7.809 c 0.016,0.43 0.199,0.848 0.566,1.266 0.364,0.41 0.735,0.648 1.11,0.714 0.508,0.094 0.887,-0.015 1.156,-0.343 0.266,-0.324 0.457,-0.832 0.586,-1.516 0.09,-0.488 0.133,-1.113 0.133,-1.875 0,-0.766 -0.028,-1.48 -0.071,-2.137 -0.136,-1.89 -0.394,-3.222 -0.777,-4 z m 4.586,7.633 c -0.234,1.278 -0.781,2.238 -1.637,2.875 -0.847,0.637 -1.918,0.836 -3.195,0.602 -1.516,-0.281 -2.91,-1.106 -4.187,-2.477 -1.278,-1.371 -1.965,-2.793 -2.071,-4.269 l -0.738,-10.731 -0.625,-2.683 3.676,0.675 c 0.14,0.438 0.238,0.774 0.293,1 0.16,0.649 0.258,1.121 0.297,1.426 l 0.355,4.453 c 0.207,-0.09 0.594,-0.281 1.168,-0.562 0.504,-0.207 0.934,-0.281 1.293,-0.211 1.555,0.281 2.824,1.176 3.812,2.683 0.934,1.418 1.489,3.153 1.649,5.196 0.059,0.699 0.027,1.375 -0.09,2.023" /><path
         id="path670"
         style="fill:#000000;fill-opacity:1;fill-rule:nonzero;stroke:none"
         d="m 322.523,302.906 c -0.359,-0.328 -0.707,-0.515 -1.035,-0.562 -0.359,-0.047 -0.683,-0.004 -0.961,0.133 -0.277,0.136 -0.445,0.39 -0.492,0.75 -0.008,0.054 -0.008,0.175 0.004,0.363 l 1.254,9.855 c -0.848,-0.41 -1.602,-0.754 -2.246,-1.023 -0.856,-0.379 -2.039,-0.84 -3.559,-1.383 l -0.058,-0.562 c 0.633,0.089 1.086,0.086 1.347,-0.008 0.262,-0.094 0.411,-0.285 0.453,-0.578 0.028,-0.2 0.02,-0.489 -0.019,-0.864 l -0.863,-6.836 c -0.016,-0.183 -0.016,-0.316 -0.004,-0.39 0.082,-0.594 0.488,-1.082 1.215,-1.453 0.726,-0.371 1.461,-0.508 2.207,-0.407 0.941,0.133 1.754,0.524 2.422,1.168 0.781,0.754 1.398,1.868 1.843,3.332 l -0.57,-0.078 c -0.199,-0.578 -0.512,-1.066 -0.938,-1.457" /><path
         id="path672"
         style="fill:#000000;fill-opacity:1;fill-rule:nonzero;stroke:none"
         d="m 335.156,311.402 -0.984,-0.089 c -0.934,-0.083 -1.785,-0.516 -2.551,-1.293 -0.766,-0.782 -1.238,-1.684 -1.426,-2.711 -0.179,-1.032 -0.234,-1.993 -0.152,-2.883 0.062,-0.696 0.23,-1.238 0.508,-1.629 0.273,-0.391 0.664,-0.563 1.179,-0.512 0.731,0.063 1.418,0.649 2.075,1.762 0.574,0.973 0.957,2.027 1.152,3.172 0.246,1.492 0.316,2.886 0.199,4.183 z m 0.489,3.141 7.07,0.637 -0.551,-3.145 -5.641,-0.508 c 0.59,-0.242 1.129,-0.66 1.606,-1.25 0.476,-0.589 0.742,-1.214 0.801,-1.875 0.023,-0.254 0.019,-0.492 -0.012,-0.718 -0.273,-1.664 -1.148,-3.106 -2.617,-4.325 -1.477,-1.218 -3.18,-1.914 -5.113,-2.089 -1.536,-0.141 -2.747,0.21 -3.633,1.05 -0.809,0.77 -1.27,1.844 -1.399,3.211 -0.066,0.77 -0.023,1.543 0.121,2.336 0.317,1.828 1.438,3.379 3.368,4.637 1.75,1.152 3.753,1.832 6,2.039" /><path
         id="path674"
         style="fill:#000000;fill-opacity:1;fill-rule:nonzero;stroke:none"
         d="m 345.879,314.285 c -0.996,-0.75 -1.973,-2.105 -2.891,-4.07 l 0.567,0.019 c 0.468,0.606 0.976,1.082 1.523,1.438 0.41,0.269 0.762,0.414 1.055,0.422 l 1.914,0.074 c -0.215,-0.609 -0.469,-1.422 -0.781,-2.422 -0.391,-1.172 -0.645,-2.125 -0.821,-2.851 -0.156,-0.735 -0.234,-1.372 -0.215,-1.922 0.079,-1.688 0.801,-2.5 2.188,-2.45 0.977,0.04 1.855,0.485 2.656,1.34 0.879,0.95 1.465,2.289 1.797,4.008 l -0.586,-0.023 c -0.254,-0.657 -0.469,-1.137 -0.644,-1.457 -0.586,-0.977 -1.25,-1.481 -1.973,-1.508 -0.352,-0.016 -0.605,0.078 -0.742,0.273 -0.137,0.199 -0.215,0.481 -0.215,0.844 -0.02,0.188 0,0.434 0.039,0.75 0.039,0.309 0.117,0.609 0.195,0.887 l 1.407,4.648 4.257,0.164 0.704,3.114 -6.25,-0.247 c -1.29,-0.046 -2.344,-0.39 -3.184,-1.031" /><path
         id="path676"
         style="fill:#000000;fill-opacity:1;fill-rule:nonzero;stroke:none"
         d="m 377.305,313.027 c -0.117,-0.347 -0.371,-0.648 -0.801,-0.918 -0.43,-0.261 -0.879,-0.39 -1.348,-0.367 -0.547,0.02 -0.957,0.149 -1.191,0.383 -0.254,0.227 -0.332,0.508 -0.215,0.836 0.039,0.105 0.117,0.262 0.254,0.469 0.137,0.203 0.195,0.355 0.195,0.441 0,0.149 -0.097,0.27 -0.332,0.363 -0.234,0.086 -0.605,0.145 -1.133,0.168 -0.781,0.036 -1.464,-0.136 -1.992,-0.507 -0.547,-0.372 -0.976,-0.989 -1.25,-1.86 -0.039,-0.219 -0.078,-0.402 -0.117,-0.555 -0.039,-0.156 -0.059,-0.253 -0.059,-0.289 0,-0.386 0.098,-0.707 0.332,-0.961 0.235,-0.257 0.665,-0.402 1.27,-0.425 0.273,-0.016 0.645,-0.004 1.133,0.019 0.469,0.024 0.742,0.035 0.801,0.035 0.332,-0.015 0.586,-0.05 0.761,-0.101 0.176,-0.055 0.215,-0.246 0.117,-0.57 -0.039,-0.165 -0.214,-0.27 -0.507,-0.325 -0.274,-0.05 -0.528,-0.074 -0.723,-0.062 l -1.66,0.148 c -0.723,0.035 -1.387,-0.203 -2.012,-0.711 -0.586,-0.504 -1.055,-1.246 -1.348,-2.226 -0.058,-0.184 -0.097,-0.321 -0.117,-0.407 -0.039,-0.093 -0.039,-0.23 -0.058,-0.41 -0.02,-0.5 0.117,-0.902 0.429,-1.23 0.313,-0.328 0.821,-0.504 1.524,-0.531 0.781,-0.036 1.621,0.296 2.519,0.992 0.723,0.554 1.485,1.32 2.246,2.297 l 2.051,-0.496 c -0.82,-1.231 -1.914,-2.164 -3.261,-2.793 -1.368,-0.629 -2.833,-0.914 -4.415,-0.844 -1.855,0.078 -3.339,0.379 -4.414,0.902 -1.074,0.524 -1.601,1.238 -1.562,2.156 0.019,0.2 0.058,0.43 0.117,0.684 0.274,0.852 0.84,1.496 1.68,1.938 0.957,0.496 2.461,0.839 4.531,1.046 -1.289,0.219 -2.285,0.622 -2.949,1.2 -0.606,0.504 -0.899,1.054 -0.86,1.664 0,0.086 0.02,0.207 0.059,0.347 0.313,0.996 1.191,1.754 2.598,2.274 1.406,0.515 3.105,0.734 5.097,0.648 1.426,-0.058 2.578,-0.273 3.438,-0.64 0.859,-0.368 1.269,-0.848 1.23,-1.454 0,-0.074 -0.019,-0.187 -0.058,-0.328" /><path
         id="path678"
         style="fill:#000000;fill-opacity:1;fill-rule:nonzero;stroke:none"
         d="m 392.832,307.078 c -0.723,-1.894 -1.875,-3.348 -3.418,-4.363 -1.543,-1.016 -3.281,-1.422 -5.176,-1.223 -1.406,0.149 -2.343,0.656 -2.871,1.52 -0.371,0.629 -0.508,1.414 -0.41,2.34 0.059,0.418 0.117,0.773 0.234,1.054 l 1.289,3.629 c 0.137,0.371 0.274,0.77 0.411,1.195 0.156,0.43 0.234,0.743 0.254,0.942 0.039,0.312 -0.04,0.473 -0.215,0.496 -0.469,0.047 -1.016,-0.168 -1.68,-0.652 -0.547,-0.383 -1.113,-0.942 -1.758,-1.668 l -0.41,0.043 c 1.133,1.629 2.148,2.746 3.047,3.332 0.762,0.504 1.582,0.711 2.461,0.617 0.781,-0.078 1.308,-0.367 1.601,-0.86 0.235,-0.39 0.313,-0.898 0.254,-1.515 -0.039,-0.328 -0.097,-0.621 -0.175,-0.879 -0.079,-0.262 -0.137,-0.445 -0.176,-0.555 l -1.426,-4.301 c -0.156,-0.476 -0.313,-0.96 -0.449,-1.445 -0.156,-0.476 -0.215,-0.816 -0.254,-0.996 -0.039,-0.398 0,-0.715 0.098,-0.937 0.117,-0.219 0.332,-0.352 0.644,-0.387 0.957,-0.102 1.914,0.457 2.891,1.656 0.781,0.984 1.484,2.262 2.09,3.817 0.292,0.785 0.468,1.242 0.507,1.382 0.176,0.52 0.274,0.989 0.313,1.407 0.078,0.582 0,1.113 -0.176,1.597 -0.195,0.481 -0.566,0.93 -1.113,1.332 l 0.351,0.461 c 1.446,-0.722 2.461,-1.551 3.067,-2.48 0.527,-0.832 0.742,-1.758 0.644,-2.782 -0.058,-0.562 -0.215,-1.156 -0.449,-1.777" /><path
         id="path680"
         style="fill:#000000;fill-opacity:1;fill-rule:nonzero;stroke:none"
         d="m 394.004,320.625 c 0.195,-0.195 0.273,-0.48 0.234,-0.84 -0.039,-0.273 -0.117,-0.519 -0.254,-0.742 -0.117,-0.227 -0.293,-0.418 -0.527,-0.59 -0.391,-0.312 -0.898,-0.66 -1.504,-1.035 -1.484,-0.902 -2.344,-1.445 -2.598,-1.633 l -1.093,0.153 3.554,4.136 c 0.254,0.297 0.528,0.5 0.821,0.617 0.273,0.118 0.566,0.157 0.859,0.118 0.215,-0.032 0.391,-0.09 0.508,-0.184" /><path
         id="path682"
         style="fill:#000000;fill-opacity:1;fill-rule:nonzero;stroke:none"
         d="m 409.082,308.738 c -0.137,-0.324 -0.449,-0.593 -0.898,-0.804 -0.469,-0.211 -0.918,-0.274 -1.387,-0.196 -0.547,0.098 -0.918,0.274 -1.133,0.532 -0.215,0.261 -0.254,0.546 -0.098,0.855 0.039,0.102 0.137,0.25 0.313,0.434 0.137,0.191 0.234,0.328 0.254,0.421 0.019,0.141 -0.078,0.274 -0.293,0.395 -0.215,0.117 -0.586,0.227 -1.094,0.316 -0.781,0.133 -1.465,0.055 -2.051,-0.242 -0.605,-0.297 -1.093,-0.859 -1.484,-1.687 -0.059,-0.211 -0.137,-0.395 -0.176,-0.539 -0.058,-0.153 -0.097,-0.246 -0.097,-0.278 -0.059,-0.382 0,-0.715 0.195,-0.996 0.215,-0.289 0.625,-0.484 1.211,-0.586 0.273,-0.05 0.644,-0.09 1.113,-0.125 0.488,-0.039 0.742,-0.054 0.801,-0.066 0.332,-0.059 0.586,-0.121 0.742,-0.199 0.176,-0.078 0.195,-0.27 0.059,-0.582 -0.079,-0.157 -0.254,-0.239 -0.547,-0.254 -0.293,-0.016 -0.528,-0.004 -0.742,0.031 l -1.602,0.359 c -0.723,0.125 -1.406,-0.023 -2.09,-0.449 -0.664,-0.426 -1.211,-1.098 -1.64,-2.031 -0.079,-0.172 -0.137,-0.305 -0.176,-0.391 -0.02,-0.082 -0.059,-0.218 -0.098,-0.398 -0.078,-0.492 0.02,-0.914 0.274,-1.278 0.253,-0.359 0.742,-0.597 1.445,-0.722 0.762,-0.129 1.64,0.09 2.637,0.66 0.781,0.461 1.621,1.125 2.519,1.992 l 1.973,-0.758 c -0.996,-1.117 -2.188,-1.898 -3.614,-2.347 -1.425,-0.453 -2.91,-0.543 -4.472,-0.274 -1.836,0.317 -3.262,0.805 -4.278,1.465 -0.996,0.652 -1.406,1.438 -1.269,2.34 0.039,0.199 0.117,0.418 0.215,0.664 0.371,0.809 1.015,1.375 1.914,1.703 0.996,0.367 2.558,0.52 4.629,0.453 -1.25,0.387 -2.188,0.91 -2.774,1.574 -0.547,0.575 -0.742,1.161 -0.644,1.758 0.019,0.086 0.039,0.203 0.117,0.34 0.43,0.949 1.387,1.59 2.852,1.922 1.464,0.328 3.183,0.324 5.136,-0.012 1.426,-0.246 2.52,-0.605 3.321,-1.078 0.8,-0.476 1.152,-1.008 1.054,-1.605 -0.019,-0.071 -0.058,-0.176 -0.117,-0.317" /><path
         id="path684"
         style="fill:#000000;fill-opacity:1;fill-rule:nonzero;stroke:none"
         d="m 417.91,299.527 0.547,-0.136 c -0.937,-1.207 -1.914,-2.016 -2.93,-2.434 -0.859,-0.359 -1.757,-0.43 -2.675,-0.203 -0.723,0.172 -1.368,0.566 -1.914,1.176 -0.528,0.609 -0.743,1.211 -0.586,1.797 0.019,0.074 0.058,0.191 0.136,0.363 l 3.282,6.051 c 0.175,0.339 0.293,0.601 0.351,0.797 0.059,0.289 -0.019,0.523 -0.234,0.703 -0.196,0.179 -0.625,0.347 -1.25,0.5 l 0.273,0.5 c 1.602,-0.047 2.891,-0.047 3.809,-0.008 0.703,0.019 1.523,0.066 2.48,0.14 l -4.765,-8.722 c -0.079,-0.172 -0.118,-0.285 -0.137,-0.34 -0.078,-0.356 -0.02,-0.648 0.195,-0.879 0.196,-0.23 0.488,-0.387 0.84,-0.473 0.313,-0.078 0.723,-0.031 1.172,0.149 0.547,0.207 0.996,0.551 1.406,1.019" /><path
         id="path686"
         style="fill:#000000;fill-opacity:1;fill-rule:nonzero;stroke:none"
         d="m 434.551,302.539 c 0.019,0.066 0.039,0.145 0.058,0.238 0.098,0.332 0.079,0.614 -0.039,0.84 -0.117,0.231 -0.371,0.403 -0.761,0.516 -0.45,0.125 -0.879,0.078 -1.309,-0.164 -0.43,-0.235 -0.801,-0.578 -1.074,-1.031 -0.098,-0.165 -0.176,-0.344 -0.235,-0.536 -0.058,-0.214 -0.117,-0.425 -0.156,-0.64 -0.058,-0.215 -0.117,-0.422 -0.176,-0.633 -0.019,-0.035 -0.058,-0.191 -0.175,-0.469 -0.098,-0.277 -0.176,-0.457 -0.215,-0.539 -0.078,-0.133 -0.196,-0.277 -0.371,-0.433 -0.196,-0.157 -0.371,-0.293 -0.547,-0.411 l -3.77,-2.453 1.817,9.676 c -1.153,-0.066 -1.895,-0.082 -2.207,-0.055 -0.332,0.028 -1.211,0.176 -2.637,0.446 l -0.293,-0.465 c 0.254,-0.094 0.586,-0.215 0.937,-0.363 0.372,-0.145 0.547,-0.293 0.547,-0.442 l -2.148,-11.117 1.211,-0.359 2.422,1.441 6.289,3.969 c 0.351,0.242 0.761,0.566 1.23,0.988 0.606,0.566 1.055,1.074 1.328,1.527 0.118,0.176 0.196,0.332 0.274,0.469" /><path
         id="path688"
         style="fill:#000000;fill-opacity:1;fill-rule:nonzero;stroke:none"
         d="m 332.813,344.141 c -0.407,1.214 -0.856,1.961 -1.368,2.254 -0.507,0.289 -1.179,0.39 -2.019,0.304 -1.422,-0.144 -2.754,-0.707 -4,-1.679 -1.727,-1.36 -2.789,-3.293 -3.199,-5.801 -0.122,-0.785 -0.149,-1.489 -0.086,-2.11 0.132,-1.312 0.625,-2.289 1.472,-2.929 0.852,-0.645 2,-0.887 3.461,-0.742 1.317,0.136 2.336,0.339 3.063,0.621 1.402,0.527 2.535,1.445 3.394,2.75 -0.019,-0.336 -0.015,-0.637 0.016,-0.911 0.062,-0.66 0.246,-1.128 0.555,-1.41 0.246,-0.215 0.566,-0.3 0.964,-0.261 0.676,0.07 1.172,0.324 1.5,0.761 0.438,0.598 0.793,1.711 1.067,3.348 l -0.57,-0.059 c -0.106,-0.433 -0.211,-0.761 -0.321,-0.976 -0.316,-0.66 -0.769,-1.016 -1.351,-1.074 -0.348,-0.039 -0.621,0.046 -0.817,0.257 -0.195,0.211 -0.32,0.602 -0.379,1.168 l 3.985,9.668 -4.239,-0.433 z m -2.239,-5.711 c -0.539,-1.395 -1.008,-2.371 -1.414,-2.926 -0.531,-0.738 -1.137,-1.141 -1.812,-1.207 -0.344,-0.035 -0.602,0.058 -0.762,0.277 -0.16,0.227 -0.262,0.578 -0.313,1.051 -0.035,0.328 -0.023,0.816 0.032,1.465 0.05,0.652 0.164,1.558 0.34,2.719 0.324,1.914 0.668,3.312 1.035,4.195 0.508,1.176 1.172,1.805 1.992,1.891 0.621,0.062 1.172,-0.215 1.644,-0.84 0.485,-0.625 0.774,-1.438 0.875,-2.442 -0.535,-1.398 -1.078,-2.793 -1.617,-4.183" /><path
         id="path690"
         style="fill:#000000;fill-opacity:1;fill-rule:nonzero;stroke:none"
         d="m 349.023,338.949 0.586,0.031 c -0.586,-1.421 -1.289,-2.472 -2.148,-3.156 -0.723,-0.582 -1.563,-0.89 -2.52,-0.937 -0.742,-0.035 -1.464,0.168 -2.168,0.605 -0.679,0.438 -1.039,0.957 -1.07,1.563 0,0.074 0.02,0.203 0.051,0.386 l 1.488,6.731 c 0.078,0.371 0.098,0.652 0.098,0.855 -0.02,0.293 -0.156,0.5 -0.41,0.618 -0.254,0.117 -0.7,0.16 -1.344,0.132 l 0.117,0.555 c 1.559,0.402 2.789,0.746 3.668,1.047 0.684,0.215 1.445,0.48 2.324,0.82 l -2.129,-9.707 c -0.039,-0.183 -0.058,-0.304 -0.058,-0.355 0.019,-0.367 0.176,-0.633 0.43,-0.797 0.253,-0.16 0.566,-0.235 0.937,-0.223 0.332,0.024 0.703,0.172 1.094,0.465 0.449,0.352 0.801,0.809 1.054,1.367" /><path
         id="path692"
         style="fill:#000000;fill-opacity:1;fill-rule:nonzero;stroke:none"
         d="m 352.539,353.988 c 0,0.492 -0.137,0.887 -0.43,1.164 -0.273,0.282 -0.644,0.418 -1.093,0.414 -0.391,0 -0.762,-0.117 -1.094,-0.351 -0.352,-0.235 -0.567,-0.57 -0.703,-1.012 -0.039,-0.164 -0.078,-0.32 -0.078,-0.469 0.019,-0.636 0.41,-0.957 1.211,-0.953 l 0.586,0.149 c -0.059,-0.313 -0.333,-0.672 -0.782,-1.082 -0.468,-0.407 -0.976,-0.75 -1.582,-1.032 l 0.254,-0.906 c 0.762,0.266 1.524,0.738 2.266,1.422 0.742,0.688 1.211,1.352 1.386,1.992 0.04,0.262 0.079,0.481 0.059,0.664" /><path
         id="path694"
         style="fill:#000000;fill-opacity:1;fill-rule:nonzero;stroke:none"
         d="m 377.305,345.785 c 0.019,0.606 -0.391,1.094 -1.25,1.461 -0.86,0.367 -1.992,0.582 -3.418,0.645 -1.992,0.086 -3.692,-0.121 -5.117,-0.641 -1.407,-0.516 -2.266,-1.273 -2.579,-2.266 -0.058,-0.144 -0.078,-0.261 -0.078,-0.355 -0.019,-0.606 0.274,-1.156 0.86,-1.66 0.683,-0.582 1.66,-0.989 2.949,-1.207 -2.07,-0.199 -3.574,-0.547 -4.531,-1.039 -0.84,-0.442 -1.407,-1.082 -1.68,-1.934 -0.059,-0.254 -0.098,-0.484 -0.117,-0.684 -0.039,-0.917 0.488,-1.636 1.562,-2.164 1.074,-0.519 2.539,-0.824 4.414,-0.906 1.582,-0.07 3.047,0.207 4.395,0.84 1.367,0.629 2.461,1.559 3.281,2.785 l -2.051,0.504 c -0.761,-0.976 -1.504,-1.742 -2.246,-2.301 -0.898,-0.691 -1.738,-1.019 -2.5,-0.984 -0.722,0.027 -1.23,0.211 -1.543,0.531 -0.312,0.328 -0.449,0.738 -0.429,1.231 0.019,0.187 0.019,0.324 0.039,0.41 0.039,0.094 0.078,0.23 0.136,0.41 0.293,0.977 0.743,1.719 1.368,2.223 0.605,0.507 1.289,0.742 2.011,0.711 l 1.641,-0.157 c 0.215,-0.008 0.449,0.016 0.723,0.067 0.293,0.05 0.468,0.16 0.507,0.32 0.098,0.328 0.059,0.52 -0.117,0.57 -0.176,0.055 -0.43,0.09 -0.762,0.106 -0.058,0 -0.332,-0.012 -0.8,-0.035 -0.469,-0.024 -0.86,-0.036 -1.133,-0.02 -0.606,0.024 -1.016,0.172 -1.25,0.426 -0.254,0.258 -0.352,0.582 -0.332,0.965 0,0.035 0.019,0.133 0.058,0.289 0.02,0.152 0.059,0.336 0.118,0.554 0.273,0.872 0.683,1.493 1.23,1.864 0.547,0.371 1.211,0.535 2.012,0.504 0.527,-0.028 0.898,-0.086 1.133,-0.176 0.214,-0.094 0.332,-0.211 0.332,-0.359 0,-0.09 -0.078,-0.239 -0.196,-0.45 -0.136,-0.203 -0.234,-0.355 -0.254,-0.468 -0.117,-0.329 -0.058,-0.598 0.196,-0.836 0.254,-0.227 0.644,-0.356 1.191,-0.379 0.488,-0.024 0.938,0.097 1.367,0.367 0.41,0.262 0.684,0.57 0.782,0.914 0.039,0.144 0.078,0.254 0.078,0.324" /><path
         id="path696"
         style="fill:#000000;fill-opacity:1;fill-rule:nonzero;stroke:none"
         d="m 372.559,354.227 0.293,-4.653 -0.977,0.074 c -0.234,0.473 -0.469,0.922 -0.742,1.348 -0.742,1.211 -1.172,1.899 -1.25,2.063 -0.078,0.164 -0.117,0.363 -0.098,0.597 0.059,0.754 0.41,1.27 1.055,1.555 0.234,0.094 0.449,0.133 0.644,0.117 0.645,-0.051 0.996,-0.418 1.075,-1.101" /><path
         id="path698"
         style="fill:#000000;fill-opacity:1;fill-rule:nonzero;stroke:none"
         d="m 391.328,344.07 c -0.195,-0.496 -0.527,-1.078 -1.015,-1.75 -0.391,-0.496 -0.743,-0.894 -1.055,-1.195 l -5.43,-5.07 -2.09,-1.867 -1.269,0.125 0.039,11.328 c -0.02,0.144 -0.215,0.257 -0.606,0.336 -0.39,0.074 -0.722,0.132 -0.996,0.179 l 0.196,0.504 c 1.445,0.004 2.343,0.024 2.656,0.055 0.332,0.035 1.055,0.187 2.168,0.465 l 0.019,-9.84 3.243,3.105 c 0.156,0.153 0.312,0.321 0.468,0.508 0.137,0.188 0.235,0.352 0.293,0.496 0.02,0.09 0.059,0.278 0.117,0.567 0.039,0.293 0.059,0.457 0.059,0.496 0.02,0.211 0.059,0.433 0.059,0.652 0.019,0.219 0.039,0.438 0.058,0.66 0.02,0.199 0.059,0.391 0.098,0.571 0.215,0.492 0.488,0.898 0.879,1.21 0.371,0.313 0.801,0.45 1.25,0.403 0.41,-0.039 0.683,-0.16 0.859,-0.363 0.156,-0.2 0.215,-0.469 0.176,-0.821 0,-0.09 0,-0.172 -0.02,-0.246 -0.019,-0.144 -0.078,-0.312 -0.156,-0.508" /></g></g></svg>